<?xml version="1.0" encoding="UTF-8"?>
<svg version="1.1" xmlns="http://www.w3.org/2000/svg" width="836" height="834">
<path d="M0 0 C275.88 0 551.76 0 836 0 C836 275.22 836 550.44 836 834 C560.12 834 284.24 834 0 834 C0 558.78 0 283.56 0 0 Z " fill="#E43831" transform="translate(0,0)"/>
<path d="M0 0 C275.88 0 551.76 0 836 0 C836 275.22 836 550.44 836 834 C560.12 834 284.24 834 0 834 C0 558.78 0 283.56 0 0 Z M363.1875 9.9375 C361.83858098 10.11358267 360.4896213 10.28935414 359.140625 10.46484375 C358.46322266 10.55362793 357.78582031 10.64241211 357.08789062 10.73388672 C354.95080906 11.00626966 352.81213326 11.25780545 350.671875 11.50390625 C349.96264893 11.58713135 349.25342285 11.67035645 348.52270508 11.75610352 C346.55584094 11.98615823 344.58848131 12.2119653 342.62109375 12.4375 C338.95540039 13.00692809 335.55417048 13.95192119 332 15 C330.67258 15.20859457 329.33874431 15.38459101 328 15.5 C324.18352471 15.91259192 320.68324447 16.9086683 317 18 C315.00511766 18.36270588 313.0062189 18.70640699 311 19 C311 19.66 311 20.32 311 21 C307.7 21.33 304.4 21.66 301 22 C301 22.66 301 23.32 301 24 C300.38253906 24.03738281 299.76507813 24.07476563 299.12890625 24.11328125 C293.0232776 24.58723416 287.71266953 25.80600373 282 28 C282 28.66 282 29.32 282 30 C279.03 30.33 276.06 30.66 273 31 C273 31.66 273 32.32 273 33 C269.37 33.66 265.74 34.32 262 35 C262 35.66 262 36.32 262 37 C259.36 37.33 256.72 37.66 254 38 C254 38.66 254 39.32 254 40 C253.154375 40.103125 252.30875 40.20625 251.4375 40.3125 C247.58557299 41.0828854 244.55924969 42.36274514 241 44 C241 44.66 241 45.32 241 46 C238.03 46.495 238.03 46.495 235 47 C235 47.66 235 48.32 235 49 C232.03 49.495 232.03 49.495 229 50 C229 50.66 229 51.32 229 52 C226.03 52.495 226.03 52.495 223 53 C223 53.66 223 54.32 223 55 C222.34 55.0825 221.68 55.165 221 55.25 C217.00960837 56.24759791 213.61450357 58.07166683 210 60 C210 60.66 210 61.32 210 62 C207.525 62.495 207.525 62.495 205 63 C205 63.66 205 64.32 205 65 C204.278125 65.103125 203.55625 65.20625 202.8125 65.3125 C199.72206579 66.06793947 197.58256159 67.15531315 195 69 C195 69.66 195 70.32 195 71 C193.68 71.33 192.36 71.66 191 72 C191 72.66 191 73.32 191 74 C190.42121094 74.1134375 189.84242188 74.226875 189.24609375 74.34375 C186.78234074 75.06359436 185.17113271 76.04297931 183.0625 77.5 C182.2890625 78.02980469 181.515625 78.55960937 180.71875 79.10546875 C179.37296875 80.04326172 179.37296875 80.04326172 178 81 C176.27513942 82.19731014 174.54971411 83.39380081 172.82397461 84.58984375 C171.66193273 85.39642805 170.50125478 86.20498141 169.34204102 87.015625 C165.21586102 89.89206949 165.21586102 89.89206949 163 91 C163 91.66 163 92.32 163 93 C162.34 93.185625 161.68 93.37125 161 93.5625 C157.5277483 95.22628727 155.1824275 97.3225619 152.35961914 99.90942383 C150.08729007 101.92266271 147.74237808 103.77187656 145.34765625 105.63671875 C137.533139 112.00654081 130.52987186 119.20759243 123.4362793 126.35791016 C121.04861083 128.76399631 118.65287482 131.16182262 116.25585938 133.55859375 C114.72348327 135.09588077 113.19156558 136.63362491 111.66015625 138.171875 C110.94972672 138.88341736 110.23929718 139.59495972 109.50733948 140.32806396 C103.10575851 145.87829731 103.10575851 145.87829731 100 153 C99.34 153 98.68 153 98 153 C97.67 154.32 97.34 155.64 97 157 C96.34 157 95.68 157 95 157 C93.18371224 158.94375954 93.18371224 158.94375954 91.375 161.375 C90.74335937 162.18710938 90.11171875 162.99921875 89.4609375 163.8359375 C87.81349192 165.84109879 87.81349192 165.84109879 88 168 C87.01 168.33 86.02 168.66 85 169 C83.60699818 170.95890881 82.27754554 172.9639118 81 175 C80.4225 175.721875 79.845 176.44375 79.25 177.1875 C77.71613352 179.04464983 77.71613352 179.04464983 78 182 C77.34 182 76.68 182 76 182 C74.76564939 183.76710099 73.61073584 185.59019568 72.5 187.4375 C69.21023766 192.89488117 69.21023766 192.89488117 67 194 C66.10488204 195.54924263 65.28106649 197.14024101 64.5 198.75 C64.0771875 199.61109375 63.654375 200.4721875 63.21875 201.359375 C62.05650938 203.877563 61.00415343 206.4152347 60 209 C59.34 209 58.68 209 58 209 C56.74335022 211.90600261 56 213.79604584 56 217 C55.34 217 54.68 217 54 217 C53.67 218.65 53.34 220.3 53 222 C52.34 222 51.68 222 51 222 C50.505 224.97 50.505 224.97 50 228 C49.34 228 48.68 228 48 228 C47.505 230.97 47.505 230.97 47 234 C46.34 234 45.68 234 45 234 C44.505 236.97 44.505 236.97 44 240 C43.34 240 42.68 240 42 240 C41.34 242.97 40.68 245.94 40 249 C39.34 249 38.68 249 38 249 C37.67 251.31 37.34 253.62 37 256 C36.34 256 35.68 256 35 256 C34.74605469 256.70125 34.49210937 257.4025 34.23046875 258.125 C33.88628906 259.07375 33.54210937 260.0225 33.1875 261 C32.82527344 262.00160156 32.46304688 263.00320313 32.08984375 264.03515625 C31.17710088 266.51820945 30.22195446 268.9773856 29.25 271.4375 C27.77927486 274.99982756 27.77927486 274.99982756 28 279 C27.34 279 26.68 279 26 279 C25.32451422 281.05962852 24.65995688 283.12284322 24 285.1875 C23.443125 286.91033203 23.443125 286.91033203 22.875 288.66796875 C22.09369447 291.64320812 21.81636694 293.95283896 22 297 C21.34 297 20.68 297 20 297 C18.80911014 302.38027025 17.7080481 307.45291384 18 313 C17.34 313 16.68 313 16 313 C15.32246768 315.83111718 14.65781273 318.66429376 14 321.5 C13.80921875 322.29148437 13.6184375 323.08296875 13.421875 323.8984375 C12.23665059 329.06262957 11.80558718 333.70225061 12 339 C11.34 339 10.68 339 10 339 C9.87882813 340.07636719 9.75765625 341.15273438 9.6328125 342.26171875 C8.85009319 349.11307451 8.04844473 355.94233117 6.9375 362.75 C6.04867105 368.26351709 5.57992811 373.74732249 5.24609375 379.3203125 C5 382 5 382 4 385 C3.91122825 386.94780829 3.88238692 388.89856282 3.88647461 390.84838867 C3.88655014 392.0494072 3.88662567 393.25042572 3.88670349 394.48783875 C3.89186478 395.78478165 3.89702606 397.08172455 3.90234375 398.41796875 C3.90420923 399.75889534 3.90563252 401.09982261 3.90663147 402.44075012 C3.91044644 405.96709073 3.92026801 409.49339004 3.93133545 413.01971436 C3.9415715 416.61925701 3.94613379 420.21880635 3.95117188 423.81835938 C3.9618912 430.87892313 3.97895538 437.93945887 4 445 C4.66 445 5.32 445 6 445 C5.97679687 445.99515625 5.95359375 446.9903125 5.9296875 448.015625 C5.79904687 456.24199592 6.04593197 464.36836394 6.8125 472.5625 C6.88259277 473.38202148 6.95268555 474.20154297 7.02490234 475.04589844 C7.50178354 479.71571708 8.49885852 483.5868443 10.2668457 487.92163086 C11.64520521 491.82904827 12.11278292 495.91102931 12.6875 500 C12.81705078 500.87011719 12.94660156 501.74023438 13.08007812 502.63671875 C13.39457518 504.75666186 13.69841096 506.87818209 14 509 C14.66 509 15.32 509 16 509 C15.979375 510.0725 15.95875 511.145 15.9375 512.25 C15.9857984 515.14790424 16.13155885 517.28612141 17 520 C17.66 520 18.32 520 19 520 C18.95875 520.721875 18.9175 521.44375 18.875 522.1875 C18.84317348 524.95662793 18.84317348 524.95662793 19.875 527.1875 C20.91939299 529.79848248 21.43649631 532.05908476 21.9375 534.8125 C22.81145171 539.4759063 24.21164387 543.6103986 26 548 C26.66 548 27.32 548 28 548 C28.495 551.96 28.495 551.96 29 556 C29.66 556 30.32 556 31 556 C31.495 559.96 31.495 559.96 32 564 C32.66 564 33.32 564 34 564 C34.66 567.3 35.32 570.6 36 574 C36.66 574 37.32 574 38 574 C38 574.99 38 575.98 38 577 C38.66 577 39.32 577 40 577 C40.1546875 578.5778125 40.1546875 578.5778125 40.3125 580.1875 C40.97949332 583.88628113 41.74990008 586.02986811 44 589 C44.66 589 45.32 589 46 589 C46.144375 589.928125 46.28875 590.85625 46.4375 591.8125 C46.92100111 595.00725111 46.92100111 595.00725111 48 598 C48.66 598 49.32 598 50 598 C50.495 600.97 50.495 600.97 51 604 C51.66 604 52.32 604 53 604 C53.495 606.97 53.495 606.97 54 610 C54.66 610 55.32 610 56 610 C57.33333333 613.33333333 58.66666667 616.66666667 60 620 C60.66 620 61.32 620 62 620 C62.268125 620.70125 62.53625 621.4025 62.8125 622.125 C64.0681449 625.1649824 65.50235123 628.0727774 67 631 C67.66 631 68.32 631 69 631 C69.33 632.65 69.66 634.3 70 636 C70.66 636 71.32 636 72 636 C72.2784375 636.57234375 72.556875 637.1446875 72.84375 637.734375 C73.98273792 639.96617566 75.19936383 642.10870874 76.5 644.25 C76.9228125 644.95640625 77.345625 645.6628125 77.78125 646.390625 C78.1834375 646.92171875 78.585625 647.4528125 79 648 C79.66 648 80.32 648 81 648 C81.061875 648.53625 81.12375 649.0725 81.1875 649.625 C82.11955284 652.34946214 83.59883803 654.0870385 85.48046875 656.234375 C87.21199745 658.24633123 88.82204371 660.33131751 90.4375 662.4375 C93.08584246 665.86307341 95.82068703 669.18069622 98.6640625 672.4453125 C99.83434463 673.80721977 100.95310998 675.21304906 102.0625 676.625 C104.22121979 679.27117265 106.55611087 681.61571793 109 684 C110.66666667 685.66666667 112.33333333 687.33333333 114 689 C114.57105469 689.55945313 115.14210938 690.11890625 115.73046875 690.6953125 C118.28933518 693.21598689 120.73434066 695.65721375 122.9375 698.5 C125.380763 701.46153091 128.12721334 703.81125634 131.046875 706.29296875 C133 708 133 708 135.6875 710.8125 C137.85652798 713.13593483 137.85652798 713.13593483 140.6875 714.0625 C143 715 143 715 143.8984375 716.859375 C145.22057934 719.42864354 146.61423819 720.48601531 148.9375 722.1875 C153.63451241 725.69693715 158.12913241 729.40767539 162.6171875 733.1796875 C164.944706 735.16191267 164.944706 735.16191267 168 736 C168 736.66 168 737.32 168 738 C169.65 738.33 171.3 738.66 173 739 C173 739.66 173 740.32 173 741 C174.32 741.33 175.64 741.66 177 742 C177 742.66 177 743.32 177 744 C178.61926171 745.26220902 178.61926171 745.26220902 180.6875 746.4375 C181.41582031 746.87320313 182.14414063 747.30890625 182.89453125 747.7578125 C183.93673828 748.37269531 183.93673828 748.37269531 185 749 C186.423125 749.8971875 186.423125 749.8971875 187.875 750.8125 C189.8852657 752.16260712 189.8852657 752.16260712 192 752 C192 752.66 192 753.32 192 754 C193.65 754.33 195.3 754.66 197 755 C197 755.66 197 756.32 197 757 C197.66 757 198.32 757 199 757 C199 757.66 199 758.32 199 759 C201.90600261 760.25664978 203.79604584 761 207 761 C207 761.66 207 762.32 207 763 C208.65 763.33 210.3 763.66 212 764 C212 764.66 212 765.32 212 766 C214.90600261 767.25664978 216.79604584 768 220 768 C220 768.66 220 769.32 220 770 C222.31 770.33 224.62 770.66 227 771 C227 771.66 227 772.32 227 773 C228.65 773.33 230.3 773.66 232 774 C232 774.66 232 775.32 232 776 C233.98 776.33 235.96 776.66 238 777 C238 777.66 238 778.32 238 779 C239.98 779.33 241.96 779.66 244 780 C244 780.66 244 781.32 244 782 C246.31 782.33 248.62 782.66 251 783 C251 783.66 251 784.32 251 785 C254.87684087 786.19287411 257.91621923 787 262 787 C262 787.66 262 788.32 262 789 C262.99 789 263.98 789 265 789 C265 789.66 265 790.32 265 791 C271.40215071 792.7494618 271.40215071 792.7494618 278 793 C278 793.66 278 794.32 278 795 C279.32 795 280.64 795 282 795 C282 795.66 282 796.32 282 797 C289.90124951 799.54355292 297.80615745 801.77917434 305.88085938 803.69238281 C310.89849842 804.89849842 310.89849842 804.89849842 312 806 C314.05508052 806.35805942 316.12002049 806.65984737 318.1875 806.9375 C320.07082031 807.19660156 320.07082031 807.19660156 321.9921875 807.4609375 C323.32806012 807.64110669 324.6639986 807.82078819 326 808 C328.60487624 808.34941923 331.20879516 808.70429009 333.8125 809.0625 C334.97394531 809.21847656 336.13539063 809.37445312 337.33203125 809.53515625 C340 810 340 810 341 811 C346.6822151 812.08808374 352.22814851 812.10452045 358 812 C358 812.66 358 813.32 358 814 C367.37912587 814.79822348 376.58786748 815.12873737 386 815 C386 815.66 386 816.32 386 817 C394.45767334 817.02312659 402.91533356 817.0409167 411.37303066 817.05181217 C415.29988658 817.05704031 419.22672094 817.06413669 423.15356445 817.07543945 C426.94014257 817.0862708 430.7266999 817.09227736 434.51329231 817.09487724 C435.96104319 817.09673105 437.40879288 817.10035081 438.85653496 817.10573006 C440.87757135 817.11294367 442.89862848 817.11340808 444.91967773 817.11352539 C446.07217514 817.115746 447.22467255 817.11796661 448.41209412 817.12025452 C450.93013147 817.29437595 450.93013147 817.29437595 452 816 C454.05782056 815.78307016 456.12226213 815.62836107 458.1875 815.5 C460.07082031 815.37625 460.07082031 815.37625 461.9921875 815.25 C464.0002609 815.12394144 466.00842961 814.99947749 468.01660156 814.875 C469.94880382 814.75370432 471.88066023 814.62693814 473.8125 814.5 C474.97394531 814.4278125 476.13539063 814.355625 477.33203125 814.28125 C479.91823805 814.2914552 479.91823805 814.2914552 481 813 C483.34852138 812.64757372 485.70437981 812.34361581 488.0625 812.0625 C492.74503765 811.48039694 497.27143424 810.78323894 501.81640625 809.5078125 C507.12847085 808.27244864 512.5973551 807.71327053 518 807 C518 806.34 518 805.68 518 805 C518.66644531 804.96261719 519.33289063 804.92523437 520.01953125 804.88671875 C526.98271493 804.39004411 533.33366568 803.05018792 540 801 C540 800.34 540 799.68 540 799 C541.299375 798.896875 542.59875 798.79375 543.9375 798.6875 C548.90160353 798.151692 553.34248334 796.75069775 558 795 C558 794.34 558 793.68 558 793 C559.7325 792.8453125 559.7325 792.8453125 561.5 792.6875 C565.18798659 792.22246491 568.33307632 791.28399418 571.76953125 789.8984375 C574.49004476 788.80260894 577.24147453 787.80853609 580 786.8125 C580.94875 786.46832031 581.8975 786.12414062 582.875 785.76953125 C583.57625 785.51558594 584.2775 785.26164063 585 785 C585 784.34 585 783.68 585 783 C587.31 782.67 589.62 782.34 592 782 C592 781.34 592 780.68 592 780 C593.98 779.67 595.96 779.34 598 779 C598 778.34 598 777.68 598 777 C599.25683594 776.86271484 599.25683594 776.86271484 600.5390625 776.72265625 C604.5174342 775.89195787 607.8126503 774.31535657 611.375 772.4375 C612.01566406 772.10814453 612.65632812 771.77878906 613.31640625 771.43945312 C614.88138632 770.63360518 616.44124021 769.81781507 618 769 C618 768.34 618 767.68 618 767 C618.99 767 619.98 767 621 767 C621 766.34 621 765.68 621 765 C621.94875 764.855625 622.8975 764.71125 623.875 764.5625 C626.8934494 764.17064601 626.8934494 764.17064601 629 763 C629 762.34 629 761.68 629 761 C630.65 760.67 632.3 760.34 634 760 C634 759.34 634 758.68 634 758 C635.65 757.67 637.3 757.34 639 757 C639 756.34 639 755.68 639 755 C639.66 754.773125 640.32 754.54625 641 754.3125 C644.20711651 752.90938653 646.98900751 751.19264158 649.9296875 749.30859375 C652.89617306 747.43355099 655.94164591 745.72032418 659 744 C659 743.34 659 742.68 659 742 C659.556875 741.7525 660.11375 741.505 660.6875 741.25 C663.402852 739.78224216 665.59721259 737.93395084 668 736 C668.7425 735.566875 669.485 735.13375 670.25 734.6875 C674.39973597 732.14107111 678.3856388 729.26788648 682 726 C682 725.34 682 724.68 682 724 C682.67417969 723.80792969 683.34835937 723.61585938 684.04296875 723.41796875 C688.18409917 721.43219551 691.03971844 718.49115107 694.3125 715.3125 C695.64351465 714.04060196 696.97553671 712.76975728 698.30859375 711.5 C699.26161377 710.58927734 699.26161377 710.58927734 700.23388672 709.66015625 C702.95393512 707.10329571 705.79427811 704.69906622 708.6796875 702.33203125 C710.27217981 700.92222301 710.27217981 700.92222301 711 698 C711.99 697.67 712.98 697.34 714 697 C715.36639342 695.3603279 716.6949419 693.68889872 718 692 C719.64429829 690.31126121 721.31384218 688.64694485 723 687 C723.59554687 686.39414062 724.19109375 685.78828125 724.8046875 685.1640625 C725.42601562 684.53242187 726.04734375 683.90078125 726.6875 683.25 C727.26886719 682.65703125 727.85023438 682.0640625 728.44921875 681.453125 C730 680 730 680 732 679 C733.88141079 676.09949171 735.50094109 673.11343005 737 670 C737.66 670 738.32 670 739 670 C740.74178936 668.01449788 740.74178936 668.01449788 742.5 665.5625 C745.79404467 661.10297767 745.79404467 661.10297767 748 660 C749.0290011 658.3510808 750.02065076 656.67888441 751 655 C752.81676087 652.22437323 754.68903728 649.4875697 756.5625 646.75 C757.05685547 646.0178125 757.55121094 645.285625 758.06054688 644.53125 C758.53685547 643.83515625 759.01316406 643.1390625 759.50390625 642.421875 C759.93517822 641.78862305 760.3664502 641.15537109 760.81079102 640.50292969 C762 639 762 639 764 638 C764.65555119 635.47266765 764.65555119 635.47266765 765 633 C765.66 633 766.32 633 767 633 C767.30292969 632.43152344 767.60585938 631.86304688 767.91796875 631.27734375 C770.03361933 627.37803699 772.17469701 623.63483891 774.8125 620.0625 C777.19374606 617.35600839 777.19374606 617.35600839 777 615 C777.66 615 778.32 615 779 615 C779.680625 613.39125 779.680625 613.39125 780.375 611.75 C781.24912779 609.69517827 782.14422661 607.72672852 783.1875 605.75 C784.21055565 603.86806529 784.21055565 603.86806529 784 601 C784.66 601 785.32 601 786 601 C786.67408308 599.73308493 787.33900497 598.46129251 788 597.1875 C788.37125 596.47980469 788.7425 595.77210938 789.125 595.04296875 C790.19685358 592.91079271 790.19685358 592.91079271 790 590 C790.66 590 791.32 590 792 590 C792.67354499 588.56570999 793.33859701 587.12742943 794 585.6875 C794.37125 584.88699219 794.7425 584.08648438 795.125 583.26171875 C796.18040667 580.93786041 796.18040667 580.93786041 796 578 C796.66 578 797.32 578 798 578 C798.25394531 577.35933594 798.50789062 576.71867188 798.76953125 576.05859375 C800.30290116 572.20506862 801.84111607 568.36410901 803.5 564.5625 C805.14414132 560.65766437 806.59091551 556.70793658 808.015625 552.71875 C808.88612667 550.3145073 809.80966754 547.93994434 810.75 545.5625 C812.22072514 542.00017244 812.22072514 542.00017244 812 538 C812.66 538 813.32 538 814 538 C814.33 535.03 814.66 532.06 815 529 C815.66 529 816.32 529 817 529 C817.33 526.03 817.66 523.06 818 520 C818.66 520 819.32 520 820 520 C820.12117187 519.26394531 820.24234375 518.52789063 820.3671875 517.76953125 C820.53476562 516.79371094 820.70234375 515.81789063 820.875 514.8125 C821.03742187 513.84957031 821.19984375 512.88664062 821.3671875 511.89453125 C822 509 822 509 823.0625 506.375 C824.31734757 503.19605283 824.13263951 500.3823076 824 497 C824.66 497 825.32 497 826 497 C826.33 492.05 826.66 487.1 827 482 C827.66 482 828.32 482 829 482 C829.13277344 480.80761719 829.26554688 479.61523438 829.40234375 478.38671875 C829.58055983 476.82029322 829.75895456 475.25388802 829.9375 473.6875 C830.06801758 472.50897461 830.06801758 472.50897461 830.20117188 471.30664062 C830.28818359 470.54931641 830.37519531 469.79199219 830.46484375 469.01171875 C830.543396 468.31522217 830.62194824 467.61872559 830.70288086 466.90112305 C831 465 831 465 832 462 C832.50621566 457.09673773 832.76678658 452.17013154 833.0625 447.25 C833.12928452 446.15421127 833.12928452 446.15421127 833.19741821 445.0362854 C834.53059742 422.69011109 834.48768992 400.34191462 833 378 C832.34 378 831.68 378 831 378 C831.03480469 376.83210937 831.03480469 376.83210937 831.0703125 375.640625 C831.24218789 364.9843508 830.19185955 354.57775354 829 344 C828.34 344 827.68 344 827 344 C827 341.36 827 338.72 827 336 C826.34 336 825.68 336 825 336 C824.95101562 335.14277344 824.90203125 334.28554688 824.8515625 333.40234375 C824.45320898 327.31028214 823.87240567 321.83750004 822 316 C821.27744133 312.67721319 820.63191896 309.34110343 820 306 C819.34 306 818.68 306 818 306 C817.87625 304.081875 817.87625 304.081875 817.75 302.125 C817.25207446 297.56542469 815.86112847 293.89349116 814.0546875 289.70703125 C812.19962269 284.94569823 811.12836895 279.9750813 810 275 C809.34 275 808.68 275 808 275 C808 273.68 808 272.36 808 271 C807.34 271 806.68 271 806 271 C805.855625 269.9275 805.71125 268.855 805.5625 267.75 C805.16250558 265.08337051 804.72408076 262.58600271 804 260 C803.34 260 802.68 260 802 260 C802 259.01 802 258.02 802 257 C801.34 257 800.68 257 800 257 C799.855625 255.906875 799.71125 254.81375 799.5625 253.6875 C799.11711896 250.06877013 799.11711896 250.06877013 798 247 C797.34 247 796.68 247 796 247 C795.67 245.02 795.34 243.04 795 241 C794.34 241 793.68 241 793 241 C792.67 239.02 792.34 237.04 792 235 C791.34 235 790.68 235 790 235 C789.91234375 234.31292969 789.8246875 233.62585938 789.734375 232.91796875 C788.83080548 229.32772178 787.14166082 226.45117263 785.25 223.3125 C781.92012374 217.6514109 778.84008995 211.92595691 776 206 C775.34 206 774.68 206 774 206 C773.71125 205.2575 773.4225 204.515 773.125 203.75 C772.17697356 201.43260203 771.15154089 199.22082885 770 197 C769.34 197 768.68 197 768 197 C767.8453125 196.1646875 767.8453125 196.1646875 767.6875 195.3125 C766.85821592 192.5230899 765.65700944 190.3860936 764 188 C763.34 188 762.68 188 762 188 C761.67 186.68 761.34 185.36 761 184 C760.34 184 759.68 184 759 184 C758.71125 183.2575 758.4225 182.515 758.125 181.75 C756.50631995 177.06457516 756.50631995 177.06457516 753 174 C751.96210419 172.35666496 750.96432076 170.68756133 750 169 C749.34 168.01 748.68 167.02 748 166 C747.34 166 746.68 166 746 166 C746 165.34 746 164.68 746 164 C745.34 163.67 744.68 163.34 744 163 C742.875 160.9375 742.875 160.9375 742 159 C741.34 159 740.68 159 740 159 C739.76667969 158.27425781 739.53335938 157.54851562 739.29296875 156.80078125 C737.76997806 153.50173494 735.9442678 151.68223854 733.3125 149.1875 C729.4158277 145.42616798 725.81324799 141.58053722 722.375 137.3984375 C721.92125 136.93695313 721.4675 136.47546875 721 136 C720.34 136 719.68 136 719 136 C718.34 134.35 717.68 132.7 717 131 C716.34 131 715.68 131 715 131 C714.67 130.01 714.34 129.02 714 128 C713.34 128 712.68 128 712 128 C711.67 127.01 711.34 126.02 711 125 C709.36786243 123.51988931 707.66909811 122.11241282 705.9375 120.75 C694.50984645 111.61973464 694.50984645 111.61973464 689.76953125 106.671875 C686.41845993 103.43896557 682.81493703 100.74551567 679.0625 98 C677.6772122 96.98075931 676.29307999 95.95994599 674.91015625 94.9375 C673.91846436 94.20466797 673.91846436 94.20466797 672.90673828 93.45703125 C671.0893136 92.06824886 669.35326245 90.61797697 667.62109375 89.125 C665.30345101 86.7900786 665.30345101 86.7900786 663 87 C663 86.34 663 85.68 663 85 C660.0173094 83.47551369 657.181798 82.06059933 654 81 C654 80.34 654 79.68 654 79 C652.02 78.34 650.04 77.68 648 77 C648 76.34 648 75.68 648 75 C647.01 75 646.02 75 645 75 C645 74.34 645 73.68 645 73 C643.2984375 72.195625 643.2984375 72.195625 641.5625 71.375 C637.47147313 69.34765276 633.79601541 66.91083829 630.078125 64.26953125 C628.02207035 63.01348282 626.3537504 62.44000289 624 62 C624 61.34 624 60.68 624 60 C622.23244474 59.15973604 620.46082737 58.32801278 618.6875 57.5 C617.70136719 57.0359375 616.71523438 56.571875 615.69921875 56.09375 C613.02199874 54.81222528 613.02199874 54.81222528 610 55 C610 54.34 610 53.68 610 53 C607.31925117 51.50734458 604.63147942 50.03093047 601.9375 48.5625 C601.18533203 48.14162109 600.43316406 47.72074219 599.65820312 47.28710938 C595.01634365 44.77528065 591.2756397 43.38533889 586 43 C586 42.34 586 41.68 586 41 C583.69 40.67 581.38 40.34 579 40 C579 39.34 579 38.68 579 38 C577.06441401 37.32779649 575.12645628 36.66241923 573.1875 36 C572.10855469 35.62875 571.02960937 35.2575 569.91796875 34.875 C567.02879198 33.85638488 567.02879198 33.85638488 564 34 C564 33.34 564 32.68 564 32 C560.04 31.505 560.04 31.505 556 31 C556 30.34 556 29.68 556 29 C551.15758367 27.66416101 547.06562383 26.74671881 542 27 C542 26.34 542 25.68 542 25 C538.52674819 23.8422494 535.63932552 23.93133348 532 24 C532 23.34 532 22.68 532 22 C531.27554688 21.87882812 530.55109375 21.75765625 529.8046875 21.6328125 C521.61721068 20.21364985 521.61721068 20.21364985 517.75 18.875 C514.40905644 17.8119725 511.48375798 17.86064968 508 18 C508 17.34 508 16.68 508 16 C507.37432129 15.91435791 506.74864258 15.82871582 506.10400391 15.74047852 C503.27715353 15.35146482 500.45108268 14.9570505 497.625 14.5625 C496.64015625 14.42779297 495.6553125 14.29308594 494.640625 14.15429688 C493.69960938 14.02216797 492.75859375 13.89003906 491.7890625 13.75390625 C490.48509521 13.57323608 490.48509521 13.57323608 489.15478516 13.38891602 C487 13 487 13 485 12 C478.30048984 11.04292712 471.76046157 10.88627261 465 11 C465 10.34 465 9.68 465 9 C449.16103626 8.03587007 433.36111012 7.84423394 417.49511719 7.86962891 C414.14626818 7.87413115 410.79757418 7.87199909 407.4487381 7.86605644 C404.18457272 7.86153484 400.92041642 7.86471599 397.65625 7.8671875 C396.4767981 7.86516327 395.29734619 7.86313904 394.08215332 7.86105347 C383.71978664 7.88989618 373.46056993 8.59075952 363.1875 9.9375 Z " fill="#1D1D1F" transform="translate(0,0)"/>
<path d="M0 0 C1.98 0 3.96 0 6 0 C6 2 6 2 3.9375 4.25 C1.22942739 6.86495836 -1.64248466 9.27500367 -4.546875 11.66796875 C-6.12779183 12.9579691 -6.12779183 12.9579691 -7 15 C-7.66 15 -8.32 15 -9 15 C-9 15.66 -9 16.32 -9 17 C-9.66 17 -10.32 17 -11 17 C-11.103125 17.5775 -11.20625 18.155 -11.3125 18.75 C-12.11350518 21.3714715 -13.35314845 22.80419793 -15 25 C-16.95402585 28.58117006 -18.70896799 32.12690397 -20 36 C-20.66 36 -21.32 36 -22 36 C-22.33 37.65 -22.66 39.3 -23 41 C-23.66 41 -24.32 41 -25 41 C-25.66 43.97 -26.32 46.94 -27 50 C-27.66 50 -28.32 50 -29 50 C-29.185625 50.8353125 -29.185625 50.8353125 -29.375 51.6875 C-30.05976855 54.22114364 -30.99133763 56.57921032 -32 59 C-32.66 59 -33.32 59 -34 59 C-34.66 62.96 -35.32 66.92 -36 71 C-36.66 71 -37.32 71 -38 71 C-38.33 73.97 -38.66 76.94 -39 80 C-39.66 80 -40.32 80 -41 80 C-41 81.32 -41 82.64 -41 84 C-41.66 84 -42.32 84 -43 84 C-43.33 88.29 -43.66 92.58 -44 97 C-44.66 97 -45.32 97 -46 97 C-46 110.2 -46 123.4 -46 137 C-45.34 137 -44.68 137 -44 137 C-43.67 140.3 -43.34 143.6 -43 147 C-42.34 147 -41.68 147 -41 147 C-39.80712589 150.87684087 -39 153.91621923 -39 158 C-38.34 158 -37.68 158 -37 158 C-37 158.66 -37 159.32 -37 160 C-36.34 160 -35.68 160 -35 160 C-34.32320342 161.725227 -33.65898 163.45538939 -33 165.1875 C-32.62875 166.15042969 -32.2575 167.11335937 -31.875 168.10546875 C-31.02363228 170.92182358 -30.82927353 173.08164439 -31 176 C-30.34 176 -29.68 176 -29 176 C-28.67 179.3 -28.34 182.6 -28 186 C-27.34 186 -26.68 186 -26 186 C-25.86722656 187.07121094 -25.73445312 188.14242187 -25.59765625 189.24609375 C-25.4194944 190.64325769 -25.24109681 192.04039159 -25.0625 193.4375 C-24.93198242 194.49807617 -24.93198242 194.49807617 -24.79882812 195.58007812 C-24.61783809 199.08817968 -24.61783809 199.08817968 -23 202 C-20.77762747 217.22736737 -21.19801215 233.74746001 -23 249 C-23.66 249 -24.32 249 -25 249 C-25 251.64 -25 254.28 -25 257 C-25.66 257 -26.32 257 -27 257 C-26.95875 257.94875 -26.9175 258.8975 -26.875 259.875 C-26.85515492 264.70727658 -27.94225804 269.30627004 -29 274 C-29.66 274 -30.32 274 -31 274 C-31.33 276.97 -31.66 279.94 -32 283 C-32.66 283 -33.32 283 -34 283 C-34.33 285.31 -34.66 287.62 -35 290 C-35.66 290 -36.32 290 -37 290 C-37.33 292.31 -37.66 294.62 -38 297 C-38.66 297 -39.32 297 -40 297 C-40.66 299.97 -41.32 302.94 -42 306 C-42.66 306 -43.32 306 -44 306 C-44.33 307.98 -44.66 309.96 -45 312 C-45.66 312 -46.32 312 -47 312 C-47.309375 312.78375 -47.61875 313.5675 -47.9375 314.375 C-49 317 -49 317 -50 319 C-50.66 319 -51.32 319 -52 319 C-52.66 318.01 -53.32 317.02 -54 316 C-56.64047252 314.98247445 -56.64047252 314.98247445 -59.625 314.3125 C-61.39875 313.879375 -63.1725 313.44625 -65 313 C-64.67 309.04 -64.34 305.08 -64 301 C-63.34 301 -62.68 301 -62 301 C-61.93941406 300.10539062 -61.87882813 299.21078125 -61.81640625 298.2890625 C-61.42112864 292.58490254 -61.02066728 286.88178184 -60.5 281.1875 C-60.4278125 280.39730469 -60.355625 279.60710937 -60.28125 278.79296875 C-60 277 -60 277 -59 276 C-58.9059933 274.03630847 -58.88256619 272.06920801 -58.88647461 270.10327148 C-58.88655014 268.84203964 -58.88662567 267.5808078 -58.88670349 266.28135681 C-58.8918109 264.89460206 -58.89702691 263.50784771 -58.90234375 262.12109375 C-58.90420799 260.71004791 -58.90563186 259.29900143 -58.90663147 257.88795471 C-58.91045621 254.16759465 -58.9202861 250.4472734 -58.93133545 246.72692871 C-58.94155052 242.93319219 -58.94612929 239.13944942 -58.95117188 235.34570312 C-58.96190842 227.89711769 -58.9789843 220.44856428 -59 213 C-59.66 213 -60.32 213 -61 213 C-61.33 208.38 -61.66 203.76 -62 199 C-62.66 199 -63.32 199 -64 199 C-64.33776684 197.2508503 -64.67003671 195.50063855 -65 193.75 C-65.185625 192.77546875 -65.37125 191.8009375 -65.5625 190.796875 C-66 188 -66 188 -66 184 C-66.66 184 -67.32 184 -68 184 C-68 182.68 -68 181.36 -68 180 C-68.66 180 -69.32 180 -70 180 C-70.66 176.7 -71.32 173.4 -72 170 C-72.66 170 -73.32 170 -74 170 C-74.33 168.35 -74.66 166.7 -75 165 C-75.66 165 -76.32 165 -77 165 C-77.33 164.01 -77.66 163.02 -78 162 C-78.66 161.67 -79.32 161.34 -80 161 C-81.03789581 159.35666496 -82.03567924 157.68756133 -83 156 C-84.61842667 152.93266914 -84.61842667 152.93266914 -86.85546875 152.3203125 C-94.7121653 151.14681684 -102.69353204 151.89475112 -110 155 C-111.5778125 155.4021875 -111.5778125 155.4021875 -113.1875 155.8125 C-117.37270862 157.11608957 -121.00016804 158.92964494 -124.86328125 160.9765625 C-127 162 -127 162 -129 162 C-129 162.66 -129 163.32 -129 164 C-129.7425 164.226875 -130.485 164.45375 -131.25 164.6875 C-134.56311379 166.26875885 -135.83619823 168.06839761 -138 171 C-140.125 173.3125 -140.125 173.3125 -142 175 C-142.66 175 -143.32 175 -144 175 C-144.268125 175.763125 -144.53625 176.52625 -144.8125 177.3125 C-146 180 -146 180 -147.46875 181.375 C-149.34443599 183.3655239 -149.8951073 185.08392398 -150.6875 187.6875 C-150.93886719 188.49574219 -151.19023438 189.30398438 -151.44921875 190.13671875 C-151.63097656 190.75160156 -151.81273437 191.36648438 -152 192 C-152.66 192 -153.32 192 -154 192 C-154 192.99 -154 193.98 -154 195 C-154.66 195 -155.32 195 -156 195 C-156.33 197.97 -156.66 200.94 -157 204 C-157.66 204 -158.32 204 -159 204 C-159.33 207.3 -159.66 210.6 -160 214 C-160.66 214 -161.32 214 -162 214 C-162.02578125 214.65742188 -162.0515625 215.31484375 -162.078125 215.9921875 C-162.65002507 225.58451133 -164.77467156 234.68467163 -167 244 C-167.66 244 -168.32 244 -169 244 C-169.33 247.63 -169.66 251.26 -170 255 C-170.66 255 -171.32 255 -172 255 C-172.06058594 255.66386719 -172.12117188 256.32773437 -172.18359375 257.01171875 C-173.01581722 265.78207381 -173.01581722 265.78207381 -174 270 C-174.66 270 -175.32 270 -176 270 C-176 271.32 -176 272.64 -176 274 C-176.66 274 -177.32 274 -178 274 C-178.33 276.97 -178.66 279.94 -179 283 C-179.66 283 -180.32 283 -181 283 C-181.33 285.31 -181.66 287.62 -182 290 C-182.66 290 -183.32 290 -184 290 C-184.144375 291.2375 -184.28875 292.475 -184.4375 293.75 C-184.78688502 296.56504499 -185.20379366 299.2701497 -186 302 C-186.66 302 -187.32 302 -188 302 C-188.33 303.98 -188.66 305.96 -189 308 C-189.66 308 -190.32 308 -191 308 C-191.33 309.98 -191.66 311.96 -192 314 C-192.66 314 -193.32 314 -194 314 C-194 314.99 -194 315.98 -194 317 C-194.66 317 -195.32 317 -196 317 C-196.144375 317.763125 -196.28875 318.52625 -196.4375 319.3125 C-197 322 -197 322 -198 325 C-198.66 325 -199.32 325 -200 325 C-200.33 326.65 -200.66 328.3 -201 330 C-201.66 330 -202.32 330 -203 330 C-203.33 331.65 -203.66 333.3 -204 335 C-204.66 335 -205.32 335 -206 335 C-207.27460466 337.45116281 -208.32367462 339.84771925 -209.3125 342.4375 C-211.10538707 346.22248382 -212.95462576 348.17215249 -216 351 C-217.221359 352.44634619 -218.44175489 353.89363287 -219.64453125 355.35546875 C-224.2473509 360.93986954 -229.10616754 366.22507379 -234.1875 371.375 C-234.69869385 371.89916504 -235.2098877 372.42333008 -235.73657227 372.96337891 C-238.32310169 375.5562489 -240.61931327 377.56646617 -244 379 C-245.02297922 379.97648017 -246.01904252 380.98131338 -247 382 C-252.53846154 386.84615385 -252.53846154 386.84615385 -256 388 C-256.33 388.66 -256.66 389.32 -257 390 C-259.5625 390.625 -259.5625 390.625 -262 391 C-262 391.66 -262 392.32 -262 393 C-263.65 393.33 -265.3 393.66 -267 394 C-267 394.66 -267 395.32 -267 396 C-268.43429001 396.67354499 -269.87257057 397.33859701 -271.3125 398 C-272.11300781 398.37125 -272.91351563 398.7425 -273.73828125 399.125 C-276 400 -276 400 -279 400 C-279 400.66 -279 401.32 -279 402 C-280.98 402.33 -282.96 402.66 -285 403 C-285 403.66 -285 404.32 -285 405 C-287.64 405.33 -290.28 405.66 -293 406 C-293 406.66 -293 407.32 -293 408 C-295.97 408.33 -298.94 408.66 -302 409 C-302 409.66 -302 410.32 -302 411 C-302.78503906 411.12117188 -303.57007813 411.24234375 -304.37890625 411.3671875 C-308.89373818 412.08734474 -313.28984248 412.79537834 -317.6875 414.0625 C-321.21244756 415.06012667 -324.54041941 415.45166195 -328.1796875 415.75390625 C-330.01709988 415.81510058 -330.01709988 415.81510058 -331 417 C-340.57532151 418.61364918 -350.51262068 418.11457359 -360.1875 418.0625 C-361.82356633 418.05747294 -363.45963417 418.05291217 -365.09570312 418.04882812 C-369.06383986 418.03792277 -373.03190291 418.0207253 -377 418 C-377 417.34 -377 416.68 -377 416 C-377.73863281 416.01160156 -378.47726562 416.02320313 -379.23828125 416.03515625 C-386.22453848 416.09729577 -393.0562763 415.76544986 -400 415 C-400 414.34 -400 413.68 -400 413 C-400.88300781 412.96261719 -401.76601563 412.92523437 -402.67578125 412.88671875 C-410.48878863 412.45872372 -417.55401004 411.41614776 -425 409 C-425 408.34 -425 407.68 -425 407 C-427.97 406.67 -430.94 406.34 -434 406 C-434 405.34 -434 404.68 -434 404 C-434.60328125 403.93941406 -435.2065625 403.87882812 -435.828125 403.81640625 C-436.62734375 403.73261719 -437.4265625 403.64882813 -438.25 403.5625 C-439.03890625 403.48128906 -439.8278125 403.40007812 -440.640625 403.31640625 C-442.82364639 403.02365007 -444.8773182 402.57935581 -447 402 C-447 401.34 -447 400.68 -447 400 C-447.99 400 -448.98 400 -450 400 C-450 399.34 -450 398.68 -450 398 C-451.093125 397.855625 -452.18625 397.71125 -453.3125 397.5625 C-457 397 -457 397 -460 396 C-460 395.34 -460 394.68 -460 394 C-461.98 393.67 -463.96 393.34 -466 393 C-466 392.34 -466 391.68 -466 391 C-466.99 390.9175 -467.98 390.835 -469 390.75 C-473.47456948 390.13691993 -477.09570685 388.18031955 -481 386 C-481 385.34 -481 384.68 -481 384 C-481.99 384 -482.98 384 -484 384 C-484 383.34 -484 382.68 -484 382 C-484.845625 381.731875 -485.69125 381.46375 -486.5625 381.1875 C-490.13854067 379.9521405 -493.53860908 378.523012 -497 377 C-497 376.34 -497 375.68 -497 375 C-498.65 374.67 -500.3 374.34 -502 374 C-502 373.34 -502 372.68 -502 372 C-503.65 371.67 -505.3 371.34 -507 371 C-507 370.34 -507 369.68 -507 369 C-508.65 368.67 -510.3 368.34 -512 368 C-512 367.34 -512 366.68 -512 366 C-512.845625 365.731875 -513.69125 365.46375 -514.5625 365.1875 C-518.13854067 363.9521405 -521.53860908 362.523012 -525 361 C-525 360.34 -525 359.68 -525 359 C-526.98 358.67 -528.96 358.34 -531 358 C-531 357.34 -531 356.68 -531 356 C-532.98 355.67 -534.96 355.34 -537 355 C-537 354.34 -537 353.68 -537 353 C-539.31 352.67 -541.62 352.34 -544 352 C-544 351.34 -544 350.68 -544 350 C-546.31 349.67 -548.62 349.34 -551 349 C-551 348.34 -551 347.68 -551 347 C-553.97 346.67 -556.94 346.34 -560 346 C-560 345.34 -560 344.68 -560 344 C-563.3 343.67 -566.6 343.34 -570 343 C-570 342.34 -570 341.68 -570 341 C-573.63 340.67 -577.26 340.34 -581 340 C-581 339.34 -581 338.68 -581 338 C-598.84215745 337.06618343 -616.63626387 336.87608472 -634.5 336.9375 C-637.08854079 336.94253291 -639.67708254 336.9470926 -642.265625 336.95117188 C-648.51043828 336.96201746 -654.75521438 336.9786091 -661 337 C-661 336.34 -661 335.68 -661 335 C-658.69 334.67 -656.38 334.34 -654 334 C-654 333.34 -654 332.68 -654 332 C-651.03 331.67 -648.06 331.34 -645 331 C-645 330.34 -645 329.68 -645 329 C-641.7 328.67 -638.4 328.34 -635 328 C-635 327.34 -635 326.68 -635 326 C-634.07316406 325.86722656 -633.14632812 325.73445313 -632.19140625 325.59765625 C-630.99386719 325.42105469 -629.79632812 325.24445313 -628.5625 325.0625 C-627.36753906 324.88847656 -626.17257812 324.71445312 -624.94140625 324.53515625 C-622.12044324 324.31014787 -622.12044324 324.31014787 -621 323 C-610.14910329 321.41097216 -598.95911926 321.84699669 -588.02514648 321.86962891 C-584.9405426 321.87499471 -581.85608389 321.86965287 -578.77148438 321.86328125 C-553.99493878 321.85378655 -553.99493878 321.85378655 -542 325 C-539.00704288 325.42286678 -536.01076675 325.73516404 -533 326 C-533 326.66 -533 327.32 -533 328 C-532.19175781 328.04898437 -531.38351562 328.09796875 -530.55078125 328.1484375 C-529.48214844 328.22320313 -528.41351562 328.29796875 -527.3125 328.375 C-526.25675781 328.44460938 -525.20101562 328.51421875 -524.11328125 328.5859375 C-521.06006932 328.99201086 -518.81849923 329.80755802 -516 331 C-514.2384872 331.41659135 -512.46686867 331.79285118 -510.6875 332.125 C-509.80449219 332.29257812 -508.92148437 332.46015625 -508.01171875 332.6328125 C-507.34785156 332.75398438 -506.68398438 332.87515625 -506 333 C-506 333.66 -506 334.32 -506 335 C-504.68 335 -503.36 335 -502 335 C-502 335.66 -502 336.32 -502 337 C-501.39671875 337.06058594 -500.7934375 337.12117188 -500.171875 337.18359375 C-499.37265625 337.26738281 -498.5734375 337.35117187 -497.75 337.4375 C-496.96109375 337.51871094 -496.1721875 337.59992188 -495.359375 337.68359375 C-493.17635361 337.97634993 -491.1226818 338.42064419 -489 339 C-489 339.66 -489 340.32 -489 341 C-486.69 341.33 -484.38 341.66 -482 342 C-482 342.66 -482 343.32 -482 344 C-479.36 344.33 -476.72 344.66 -474 345 C-474 345.66 -474 346.32 -474 347 C-471.36 347.33 -468.72 347.66 -466 348 C-466 348.66 -466 349.32 -466 350 C-463.03 350.33 -460.06 350.66 -457 351 C-457 351.66 -457 352.32 -457 353 C-456.39671875 353.06058594 -455.7934375 353.12117188 -455.171875 353.18359375 C-454.37265625 353.26738281 -453.5734375 353.35117187 -452.75 353.4375 C-451.96109375 353.51871094 -451.1721875 353.59992188 -450.359375 353.68359375 C-448.17635361 353.97634993 -446.1226818 354.42064419 -444 355 C-444 355.66 -444 356.32 -444 357 C-442.35 357 -440.7 357 -439 357 C-439 357.66 -439 358.32 -439 359 C-438.29617188 359.03738281 -437.59234375 359.07476563 -436.8671875 359.11328125 C-428.70861723 359.65647588 -420.95249828 361.12951594 -413 363 C-413 363.66 -413 364.32 -413 365 C-412.41734375 364.98839844 -411.8346875 364.97679687 -411.234375 364.96484375 C-406.76767588 364.91568197 -402.4039819 365.02420315 -397.9609375 365.49609375 C-389.55017454 366.22484516 -381.13527759 366.14946606 -372.69970703 366.13037109 C-369.8739692 366.12499804 -367.04838935 366.13035118 -364.22265625 366.13671875 C-362.39583299 366.13605807 -360.56900982 366.13477711 -358.7421875 366.1328125 C-357.49802567 366.13584885 -357.49802567 366.13584885 -356.22872925 366.13894653 C-346.48989383 366.76596114 -346.48989383 366.76596114 -338 364 C-335.65012738 363.76472227 -333.29443961 363.58613583 -330.9375 363.4375 C-329.00197266 363.31181641 -329.00197266 363.31181641 -327.02734375 363.18359375 C-326.02832031 363.12300781 -325.02929688 363.06242187 -324 363 C-324 362.34 -324 361.68 -324 361 C-323.26394531 360.87882812 -322.52789062 360.75765625 -321.76953125 360.6328125 C-320.79371094 360.46523438 -319.81789063 360.29765625 -318.8125 360.125 C-317.84957031 359.96257812 -316.88664062 359.80015625 -315.89453125 359.6328125 C-312.98926241 359.08081308 -312.98926241 359.08081308 -310.32421875 357.9296875 C-308 357 -308 357 -305 357 C-305 356.34 -305 355.68 -305 355 C-300 353.33333333 -295 351.66666667 -290 350 C-290 349.34 -290 348.68 -290 348 C-288.948125 347.54625 -287.89625 347.0925 -286.8125 346.625 C-286.17570312 346.34785156 -285.53890625 346.07070313 -284.8828125 345.78515625 C-283.34412447 345.14350419 -281.76906581 344.5896886 -280.1875 344.0625 C-277.86698676 343.20987598 -277.86698676 343.20987598 -277.0625 341.125 C-275.76705663 338.53411326 -274.0978951 337.75742379 -271.71801758 336.2265625 C-268.58260821 333.98806646 -265.98852922 331.19415119 -263.3125 328.4375 C-262.74466797 327.86064453 -262.17683594 327.28378906 -261.59179688 326.68945312 C-260.53840797 325.6187753 -259.48710471 324.54603797 -258.4387207 323.47045898 C-257.44292142 322.4526923 -256.43109629 321.45045209 -255.40698242 320.46118164 C-253.53995068 318.52222884 -252.37528124 316.31047248 -251 314 C-250.360625 313.236875 -249.72125 312.47375 -249.0625 311.6875 C-246.49916447 308.34739613 -244.7739802 304.80273416 -243 301 C-242.34 301 -241.68 301 -241 301 C-239.46753141 298.03814367 -238.1669471 295.03682861 -236.9375 291.9375 C-236.59589844 291.08027344 -236.25429688 290.22304688 -235.90234375 289.33984375 C-235.22246522 287.57686869 -234.5975212 285.79256361 -234 284 C-233.34 284 -232.68 284 -232 284 C-231.67 281.03 -231.34 278.06 -231 275 C-230.34 275 -229.68 275 -229 275 C-228.34 270.38 -227.68 265.76 -227 261 C-226.34 261 -225.68 261 -225 261 C-224.67 257.04 -224.34 253.08 -224 249 C-223.34 249 -222.68 249 -222 249 C-222.01160156 248.41992188 -222.02320313 247.83984375 -222.03515625 247.2421875 C-222.08762174 242.7001754 -221.91751063 238.47286431 -221 234 C-220.34 234 -219.68 234 -219 234 C-219.020625 232.88625 -219.04125 231.7725 -219.0625 230.625 C-219 227 -219 227 -218 225 C-217.70903923 223.04455365 -217.46546086 221.08195382 -217.24609375 219.1171875 C-217.11396484 217.95058594 -216.98183594 216.78398437 -216.84570312 215.58203125 C-216.64364258 213.74705078 -216.64364258 213.74705078 -216.4375 211.875 C-216.29892578 210.64394531 -216.16035156 209.41289062 -216.01757812 208.14453125 C-215.67499439 205.09671732 -215.3359537 202.04855069 -215 199 C-214.34 199 -213.68 199 -213 199 C-212.96261719 198.3709375 -212.92523438 197.741875 -212.88671875 197.09375 C-212.43322879 191.18948851 -211.32023086 186.44749854 -209 181 C-208.34 181 -207.68 181 -207 181 C-206.855625 179.9275 -206.71125 178.855 -206.5625 177.75 C-206.16250558 175.08337051 -205.72408076 172.58600271 -205 170 C-204.34 170 -203.68 170 -203 170 C-202.67 168.35 -202.34 166.7 -202 165 C-201.34 165 -200.68 165 -200 165 C-199.67 163.35 -199.34 161.7 -199 160 C-198.34 160 -197.68 160 -197 160 C-197 159.01 -197 158.02 -197 157 C-196.34 156.67 -195.68 156.34 -195 156 C-193.96564444 154.35443434 -192.97236487 152.6829392 -192 151 C-189.18918814 146.34762175 -186.2039049 143.41567273 -182 140 C-180.66172696 138.33729713 -179.32810215 136.67083819 -178 135 C-173.45945946 131 -173.45945946 131 -171 131 C-171 130.34 -171 129.68 -171 129 C-168.60229938 125.95516911 -165.50145894 124.59959264 -162.0625 122.9375 C-161.02222656 122.43089844 -159.98195313 121.92429687 -158.91015625 121.40234375 C-157.94980469 120.93957031 -156.98945312 120.47679687 -156 120 C-154.66535434 119.33596447 -153.33140286 118.67051373 -152 118 C-152 117.34 -152 116.68 -152 116 C-144.57142857 112.71428571 -144.57142857 112.71428571 -141 112 C-141 111.34 -141 110.68 -141 110 C-138.03 109.505 -138.03 109.505 -135 109 C-135 108.34 -135 107.68 -135 107 C-132.69 106.67 -130.38 106.34 -128 106 C-128 105.34 -128 104.68 -128 104 C-125.03 103.505 -125.03 103.505 -122 103 C-122 102.34 -122 101.68 -122 101 C-119.69 100.67 -117.38 100.34 -115 100 C-115 99.34 -115 98.68 -115 98 C-110.545 97.01 -110.545 97.01 -106 96 C-106 95.34 -106 94.68 -106 94 C-99.25 90 -99.25 90 -97 90 C-96.65388672 89.17048828 -96.65388672 89.17048828 -96.30078125 88.32421875 C-94.64744599 85.37006115 -92.53411977 83.2505922 -90.1875 80.8125 C-85.901422 76.19767796 -82.67093111 71.69330052 -80 66 C-79.34 66 -78.68 66 -78 66 C-77.67 64.68 -77.34 63.36 -77 62 C-76.34 62 -75.68 62 -75 62 C-74.7525 61.29875 -74.505 60.5975 -74.25 59.875 C-72.82353651 56.59413398 -71.1459762 53.8613016 -69 51 C-67.515 50.505 -67.515 50.505 -66 50 C-65.731875 49.29875 -65.46375 48.5975 -65.1875 47.875 C-63.57326811 43.96685964 -61.07443149 40.89898839 -58 38 C-57.34 38 -56.68 38 -56 38 C-55.71125 37.401875 -55.4225 36.80375 -55.125 36.1875 C-54 34 -54 34 -52 31 C-51.34 31 -50.68 31 -50 31 C-50 30.34 -50 29.68 -50 29 C-48.47047124 27.62517548 -46.87477094 26.32334103 -45.25 25.0625 C-43.92742187 24.02802734 -43.92742187 24.02802734 -42.578125 22.97265625 C-41.72734375 22.32167969 -40.8765625 21.67070312 -40 21 C-39.27296875 20.42121094 -38.5459375 19.84242188 -37.796875 19.24609375 C-36 18 -36 18 -34 18 C-34 17.34 -34 16.68 -34 16 C-32.68 15.67 -31.36 15.34 -30 15 C-30 14.34 -30 13.68 -30 13 C-28.35 12.67 -26.7 12.34 -25 12 C-25 11.34 -25 10.68 -25 10 C-20.545 9.01 -20.545 9.01 -16 8 C-16 7.34 -16 6.68 -16 6 C-15.34 6 -14.68 6 -14 6 C-14 5.34 -14 4.68 -14 4 C-4.58997722 1.70387244 -4.58997722 1.70387244 0 2 C0 1.34 0 0.68 0 0 Z " fill="#FCF9FA" transform="translate(714,185)"/>
<path d="M0 0 C0.70125 0.01417969 1.4025 0.02835937 2.125 0.04296875 C3.176875 0.05263672 3.176875 0.05263672 4.25 0.0625 C6.125 0.23046875 6.125 0.23046875 8.125 1.23046875 C8.125 1.89046875 8.125 2.55046875 8.125 3.23046875 C8.785 3.23046875 9.445 3.23046875 10.125 3.23046875 C10.47234012 7.39855025 9.77152221 9.0546421 7.125 12.23046875 C6.795 13.22046875 6.465 14.21046875 6.125 15.23046875 C5.465 15.23046875 4.805 15.23046875 4.125 15.23046875 C3.8878125 15.771875 3.650625 16.31328125 3.40625 16.87109375 C1.78152243 19.86297012 -0.2251877 22.34206274 -2.375 24.98046875 C-3.1690625 25.9653125 -3.963125 26.95015625 -4.78125 27.96484375 C-5.4721875 28.7125 -6.163125 29.46015625 -6.875 30.23046875 C-7.535 30.23046875 -8.195 30.23046875 -8.875 30.23046875 C-9.143125 30.82859375 -9.41125 31.42671875 -9.6875 32.04296875 C-10.87417406 34.22894729 -11.97099113 35.64379469 -13.875 37.23046875 C-14.535 37.23046875 -15.195 37.23046875 -15.875 37.23046875 C-15.875 37.89046875 -15.875 38.55046875 -15.875 39.23046875 C-17.55035459 40.75031758 -19.29205622 42.19753328 -21.0625 43.60546875 C-22.02542969 44.37632812 -22.98835937 45.1471875 -23.98046875 45.94140625 C-24.93566406 46.69679688 -25.89085937 47.4521875 -26.875 48.23046875 C-27.77863281 48.98585938 -28.68226563 49.74125 -29.61328125 50.51953125 C-31.875 52.23046875 -31.875 52.23046875 -33.875 52.23046875 C-33.875 52.89046875 -33.875 53.55046875 -33.875 54.23046875 C-34.865 54.23046875 -35.855 54.23046875 -36.875 54.23046875 C-36.875 53.57046875 -36.875 52.91046875 -36.875 52.23046875 C-36.215 52.23046875 -35.555 52.23046875 -34.875 52.23046875 C-34.62621094 51.66199219 -34.37742187 51.09351563 -34.12109375 50.5078125 C-32.68737596 47.88756965 -30.9709096 45.97784275 -28.9375 43.79296875 C-26.12041175 40.76525708 -23.9170495 37.82726049 -21.875 34.23046875 C-20.6045036 32.18997453 -19.28068804 30.1802941 -17.875 28.23046875 C-17.215 28.23046875 -16.555 28.23046875 -15.875 28.23046875 C-15.771875 27.50859375 -15.66875 26.78671875 -15.5625 26.04296875 C-14.6472786 22.29888122 -12.78862527 19.60683929 -10.671875 16.41796875 C-8.44066315 12.97706373 -6.57183074 9.72737859 -5.1875 5.85546875 C-3.21028815 0.39459792 -3.21028815 0.39459792 0 0 Z " fill="#292022" transform="translate(647.875,504.76953125)"/>
<path d="M0 0 C0 3.59780744 -1.1476458 4.88976195 -3.4609375 7.5390625 C-5.40472077 9.38417657 -7.60649365 10.51311681 -9.9765625 11.734375 C-13.54273506 13.96495397 -16.44990861 16.97373712 -19.47265625 19.87890625 C-22 22 -22 22 -24.87109375 23.27734375 C-28.45003231 25.2477706 -30.24779112 27.3933643 -32.83105469 30.49853516 C-35.49145626 33.56680108 -38.32066319 36.4265483 -41.1953125 39.29296875 C-41.75458435 39.85122345 -42.3138562 40.40947815 -42.89007568 40.98464966 C-44.63309612 42.7209099 -46.37896163 44.45427526 -48.125 46.1875 C-49.30362055 47.36109203 -50.48200762 48.5349186 -51.66015625 49.70898438 C-54.30527916 52.34420979 -56.95159263 54.97821428 -59.60357666 57.60653687 C-60.9744623 58.97451643 -62.32897368 60.35884234 -63.68310547 61.7434082 C-66 64 -66 64 -69 66 C-69.433125 66.99 -69.433125 66.99 -69.875 68 C-71.40185248 70.71440441 -73.10513932 71.08583347 -76 72 C-75.67 71.01 -75.34 70.02 -75 69 C-74.34 69 -73.68 69 -73 69 C-72.61980713 68.14378052 -72.61980713 68.14378052 -72.23193359 67.27026367 C-67.07840264 57.77310071 -56.91486709 49.72860143 -49.31542969 42.13012695 C-47.36624339 40.17873347 -45.42523419 38.21943727 -43.484375 36.25976562 C-42.22705214 34.99951131 -40.96925612 33.73972884 -39.7109375 32.48046875 C-39.14096039 31.90330612 -38.57098328 31.32614349 -37.98373413 30.73149109 C-34.24077951 27.00943517 -30.33436163 24.01137525 -26 21 C-25.21625 20.21625 -24.4325 19.4325 -23.625 18.625 C-20.05367199 15.05367199 -16.17607809 11.84695304 -12 9 C-11.34 9 -10.68 9 -10 9 C-10 8.34 -10 7.68 -10 7 C-8.06640625 5.52734375 -8.06640625 5.52734375 -5.5625 3.9375 C-2.6281857 2.16321108 -2.6281857 2.16321108 0 0 Z " fill="#D43227" transform="translate(173,84)"/>
<path d="M0 0 C0.82130142 2.87413546 1.12230589 5.41599822 1.11352539 8.40136719 C1.11344986 9.2619574 1.11337433 10.12254761 1.11329651 11.00921631 C1.10813522 11.92914368 1.10297394 12.84907104 1.09765625 13.796875 C1.0962413 14.74564514 1.09482635 15.69441528 1.09336853 16.67193604 C1.08777742 19.69798962 1.07522652 22.72396883 1.0625 25.75 C1.05748385 27.80338435 1.05292115 29.85676986 1.04882812 31.91015625 C1.03781089 36.94013276 1.02055233 41.97005378 1 47 C1.33 47 1.66 47 2 47 C2.43409902 51.3552293 2.86101502 55.71109004 3.28173828 60.06762695 C3.42534936 61.54470062 3.57080665 63.02159614 3.71826172 64.49829102 C5.90575837 86.44022173 5.90575837 86.44022173 4 95 C5.485 94.505 5.485 94.505 7 94 C7.22142255 95.95689659 7.4267568 97.91561952 7.625 99.875 C7.74101562 100.96554687 7.85703125 102.05609375 7.9765625 103.1796875 C7.98429688 104.11039062 7.99203125 105.04109375 8 106 C7.01 106.99 7.01 106.99 6 108 C3.54398668 102.12575445 2.3536619 96.88974007 1.8125 90.5625 C1.73209473 89.70301758 1.65168945 88.84353516 1.56884766 87.95800781 C0.85143001 79.63351563 0.80537181 71.3473868 1 63 C0.34 63 -0.32 63 -1 63 C-1.02316284 55.22878953 -1.04093523 47.45758714 -1.05181217 39.68635082 C-1.05703236 36.07791615 -1.06411436 32.46950508 -1.07543945 28.86108398 C-1.086299 25.37923767 -1.09228336 21.89741408 -1.09487724 18.41555214 C-1.0976261 16.43964005 -1.10543327 14.4637371 -1.11329651 12.48783875 C-1.11337204 11.28682022 -1.11344757 10.0858017 -1.11352539 8.84838867 C-1.115746 7.78915695 -1.11796661 6.72992523 -1.12025452 5.63859558 C-1 3 -1 3 0 0 Z " fill="#C02F26" transform="translate(5,382)"/>
<path d="M0 0 C0.99 0.33 1.98 0.66 3 1 C1.60026042 2.13932292 0.20052083 3.27864583 -1.19921875 4.41796875 C-3.57643721 6.50641447 -5.7672045 8.75763538 -8 11 C-10.3336394 13.27209135 -12.69385654 15.51448284 -15.0625 17.75 C-15.67416016 18.33910156 -16.28582031 18.92820312 -16.91601562 19.53515625 C-17.51220703 20.09589844 -18.10839844 20.65664063 -18.72265625 21.234375 C-19.25640869 21.74194336 -19.79016113 22.24951172 -20.34008789 22.77246094 C-22.20746116 24.15342178 -23.73218545 24.58671678 -26 25 C-26 25.66 -26 26.32 -26 27 C-32.75213651 33.25876537 -40.68148586 39.00860532 -49 43 C-49 43.66 -49 44.32 -49 45 C-50.3984375 46.078125 -50.3984375 46.078125 -52.375 47.25 C-53.096875 47.68183594 -53.81875 48.11367188 -54.5625 48.55859375 C-55.366875 49.03425781 -56.17125 49.50992188 -57 50 C-57.886875 50.54785156 -58.77375 51.09570312 -59.6875 51.66015625 C-66.74615839 56 -66.74615839 56 -69 56 C-69 56.66 -69 57.32 -69 58 C-69.99 57.67 -70.98 57.34 -72 57 C-71.34 57 -70.68 57 -70 57 C-69.74992188 56.39285156 -69.49984375 55.78570313 -69.2421875 55.16015625 C-67.80653391 52.66356368 -66.60287901 51.85409876 -64.125 50.4375 C-61.84241086 49.10255617 -59.81499515 47.85096831 -57.75 46.1875 C-56 45 -56 45 -52 45 C-51.67 44.01 -51.34 43.02 -51 42 C-50.01 42 -49.02 42 -48 42 C-47.81308594 41.44699219 -47.62617187 40.89398437 -47.43359375 40.32421875 C-45.32181641 36.90049255 -42.33989252 35.06922831 -39.0625 32.8125 C-38.42892578 32.36197266 -37.79535156 31.91144531 -37.14257812 31.44726562 C-34.45695374 29.56365735 -32.12788702 28.04262901 -29 27 C-28.505 25.515 -28.505 25.515 -28 24 C-26.2704344 22.36902528 -24.46782156 20.81432702 -22.625 19.3125 C-21.64789062 18.50425781 -20.67078125 17.69601562 -19.6640625 16.86328125 C-17 15 -17 15 -14 15 C-13.91492188 14.41734375 -13.82984375 13.8346875 -13.7421875 13.234375 C-12.78893739 10.36459046 -11.40804374 9.20689464 -9.125 7.25 C-8.07699219 6.32960938 -8.07699219 6.32960938 -7.0078125 5.390625 C-5 4 -5 4 -2 4 C-1.34 2.68 -0.68 1.36 0 0 Z " fill="#D33227" transform="translate(708,699)"/>
<path d="M0 0 C0 0.66 0 1.32 0 2 C-1.21558594 2.13277344 -2.43117188 2.26554688 -3.68359375 2.40234375 C-5.26825484 2.58050091 -6.8528889 2.75889875 -8.4375 2.9375 C-9.64116211 3.06801758 -9.64116211 3.06801758 -10.86914062 3.20117188 C-14.75576664 3.30548394 -14.75576664 3.30548394 -18 5 C-19.89993298 5.21646947 -21.80694533 5.3714389 -23.71484375 5.5 C-25.45604492 5.62375 -25.45604492 5.62375 -27.23242188 5.75 C-28.45509766 5.8325 -29.67777344 5.915 -30.9375 6 C-33.34271232 6.16280654 -35.74767973 6.32928619 -38.15234375 6.5 C-39.22476318 6.5721875 -40.29718262 6.644375 -41.40209961 6.71875 C-43.98097806 6.84534443 -43.98097806 6.84534443 -46 8 C-48.14407645 8.09693913 -50.29123371 8.12796864 -52.4375 8.12939453 C-53.09782227 8.13114685 -53.75814453 8.13289917 -54.43847656 8.13470459 C-56.62567761 8.13911325 -58.8127981 8.13618859 -61 8.1328125 C-62.51692724 8.13348582 -64.03385438 8.13445609 -65.55078125 8.13571167 C-68.73178127 8.1371873 -71.91275324 8.13503839 -75.09375 8.13037109 C-79.17621087 8.12467388 -83.258606 8.1279536 -87.34106445 8.13394356 C-90.47396339 8.13755279 -93.60684669 8.13640891 -96.73974609 8.13381577 C-98.24528003 8.1331475 -99.75081537 8.13397143 -101.25634766 8.13629532 C-103.35843686 8.13882775 -105.46041881 8.13497289 -107.5625 8.12939453 C-108.76003906 8.12859894 -109.95757812 8.12780334 -111.19140625 8.12698364 C-114 8 -114 8 -116 7 C-118.70872518 6.60772162 -121.40751693 6.25430502 -124.125 5.9375 C-125.25615234 5.80118164 -125.25615234 5.80118164 -126.41015625 5.66210938 C-128.27304188 5.43809148 -130.13647252 5.21861427 -132 5 C-132 4.67 -132 4.34 -132 4 C-125.73 4.33 -119.46 4.66 -113 5 C-113 5.66 -113 6.32 -113 7 C-104.54223786 6.89265162 -96.08456926 6.78004994 -87.62696934 6.66066074 C-83.70015386 6.60539585 -79.77333099 6.5519703 -75.84643555 6.50268555 C-72.05979158 6.45509439 -68.27324084 6.40275376 -64.48670769 6.34705925 C-63.03898362 6.32661182 -61.59123397 6.30790276 -60.14346504 6.29092598 C-58.12235841 6.26693492 -56.1013339 6.23629925 -54.08032227 6.20532227 C-52.92782486 6.18977798 -51.77532745 6.1742337 -50.58790588 6.15821838 C-48.07029411 6.29117368 -48.07029411 6.29117368 -47 5 C-44.94217944 4.78307016 -42.87773787 4.62836107 -40.8125 4.5 C-39.55695313 4.4175 -38.30140625 4.335 -37.0078125 4.25 C-34.9997391 4.12394144 -32.99157039 3.99947749 -30.98339844 3.875 C-29.05119618 3.75370432 -27.11933977 3.62693814 -25.1875 3.5 C-24.02605469 3.4278125 -22.86460937 3.355625 -21.66796875 3.28125 C-19.08176195 3.2914552 -19.08176195 3.2914552 -18 2 C-15.54024213 1.59786775 -13.09648797 1.24758446 -10.625 0.9375 C-9.93921875 0.84662109 -9.2534375 0.75574219 -8.546875 0.66210938 C-5.67413443 0.29044158 -2.8998232 0 0 0 Z " fill="#5A2422" transform="translate(499,810)"/>
<path d="M0 0 C1.45369052 2.90738103 1.29639413 4.73966458 1 8 C0.17193908 10.25462132 -0.79175139 12.39433335 -1.83203125 14.55859375 C-4.62815122 20.40332613 -6.53953021 25.70071748 -7.5625 32.0625 C-8.35805051 36.86762507 -9.38162607 41.39578891 -11 46 C-11.79949955 48.89579502 -12.55922524 51.79992697 -13.31640625 54.70703125 C-14 57 -14 57 -15 58 C-15.2165625 59.7325 -15.2165625 59.7325 -15.4375 61.5 C-15.623125 62.655 -15.80875 63.81 -16 65 C-16.99 65.495 -16.99 65.495 -18 66 C-17.48400816 58.1177798 -15.9078547 50.65541695 -14 43 C-13.34 43 -12.68 43 -12 43 C-11.93941406 42.18015625 -11.87882812 41.3603125 -11.81640625 40.515625 C-11.69072266 38.89914062 -11.69072266 38.89914062 -11.5625 37.25 C-11.48128906 36.18265625 -11.40007813 35.1153125 -11.31640625 34.015625 C-11.05909227 31.56320038 -10.68187782 29.36078709 -10 27 C-9.34 27 -8.68 27 -8 27 C-7.896875 25.700625 -7.79375 24.40125 -7.6875 23.0625 C-7.151692 18.09839647 -5.75069775 13.65751666 -4 9 C-3.34 9 -2.68 9 -2 9 C-1.855625 7.700625 -1.71125 6.40125 -1.5625 5.0625 C-1.125 1.125 -1.125 1.125 0 0 Z " fill="#E13328" transform="translate(30,270)"/>
<path d="M0 0 C0.66 0 1.32 0 2 0 C1.12972819 8.26758217 -2.3512175 15.23813454 -7 22 C-8.73900177 25.29862227 -10.38041558 28.64135361 -12 32 C-12.66 32 -13.32 32 -14 32 C-14.268125 32.763125 -14.53625 33.52625 -14.8125 34.3125 C-15.98525491 36.96662954 -16.95681362 38.03854108 -19 40 C-19.433125 40.73605469 -19.86625 41.47210937 -20.3125 42.23046875 C-22.18530809 45.30412832 -24.29317469 48.01977182 -26.5625 50.8125 C-27.34753906 51.78832031 -28.13257813 52.76414062 -28.94140625 53.76953125 C-29.62074219 54.50558594 -30.30007813 55.24164062 -31 56 C-31.66 56 -32.32 56 -33 56 C-33 56.66 -33 57.32 -33 58 C-32.34 58.33 -31.68 58.66 -31 59 C-32.485 59.495 -32.485 59.495 -34 60 C-34.3125 57.875 -34.3125 57.875 -34 55 C-32.39881603 52.94720004 -30.73223664 50.94348501 -29 49 C-28.67 48.01 -28.34 47.02 -28 46 C-26.34211215 44.65576661 -24.67423683 43.32381517 -23 42 C-19.8524207 38.55733514 -17.69575645 34.81553765 -15.49609375 30.73828125 C-14.34662559 28.63442438 -13.1739538 26.55452759 -11.97265625 24.48046875 C-11.61655273 23.86486084 -11.26044922 23.24925293 -10.89355469 22.61499023 C-10.18681395 21.39575074 -9.47791745 20.17775763 -8.76660156 18.96118164 C-6.89055901 15.7121001 -5.31948425 12.50902142 -4 9 C-3.29967551 7.3923208 -2.59163143 5.78797687 -1.875 4.1875 C-1.34519531 3.00220703 -1.34519531 3.00220703 -0.8046875 1.79296875 C-0.53914062 1.20128906 -0.27359375 0.60960937 0 0 Z " fill="#D73226" transform="translate(644,501)"/>
<path d="M0 0 C0.33 0.66 0.66 1.32 1 2 C3.32961443 2.35840222 5.66365343 2.68848712 8 3 C11.84177166 4.19521785 12.70681254 4.56021882 15 8 C15 8.99 15 9.98 15 11 C14.34 11 13.68 11 13 11 C12.34 12.32 11.68 13.64 11 15 C10.67 14.01 10.34 13.02 10 12 C9.34 12 8.68 12 8 12 C8 11.34 8 10.68 8 10 C4.37 10 0.74 10 -3 10 C-1.125 1.125 -1.125 1.125 0 0 Z " fill="#9E8486" transform="translate(648,496)"/>
<path d="M0 0 C0.33 0 0.66 0 1 0 C1 2.31 1 4.62 1 7 C2.98567708 6.96744792 4.97135417 6.93489583 6.95703125 6.90234375 C9 7 9 7 12 8 C12 8.66 12 9.32 12 10 C13.98 10 15.96 10 18 10 C18.33 9.34 18.66 8.68 19 8 C19 8.99 19 9.98 19 11 C18.34 11 17.68 11 17 11 C16.690625 11.78375 16.38125 12.5675 16.0625 13.375 C15 16 15 16 14 18 C13.34 18 12.68 18 12 18 C11.34 17.01 10.68 16.02 10 15 C7.35952748 13.98247445 7.35952748 13.98247445 4.375 13.3125 C2.60125 12.879375 0.8275 12.44625 -1 12 C-0.67 8.04 -0.34 4.08 0 0 Z " fill="#DFC9C8" transform="translate(650,486)"/>
<path d="M0 0 C0 0.99 0 1.98 0 3 C-1.66215268 4.33895632 -3.32963607 5.67130142 -5 7 C-6.34216975 8.99408077 -7.6772113 10.99301025 -9 13 C-9.66 13 -10.32 13 -11 13 C-11.268125 13.556875 -11.53625 14.11375 -11.8125 14.6875 C-12.204375 15.450625 -12.59625 16.21375 -13 17 C-13.37125 17.763125 -13.7425 18.52625 -14.125 19.3125 C-16.38746428 22.55536547 -19.06583303 24.76671811 -22.078125 27.30078125 C-24.36271903 29.32069671 -26.12229804 31.60431129 -28 34 C-29.64295195 35.36244796 -31.30824337 36.69864875 -33 38 C-34.0173873 38.98230498 -35.02596117 39.97469597 -36 41 C-35.58682778 36.17965738 -33.61980085 34.09007389 -30 31 C-29.34 31 -28.68 31 -28 31 C-27.7328418 30.40993164 -27.46568359 29.81986328 -27.19042969 29.21191406 C-25.98201018 26.96657347 -24.71934858 25.43697724 -22.953125 23.609375 C-22.355 22.98160156 -21.756875 22.35382812 -21.140625 21.70703125 C-20.51671875 21.06121094 -19.8928125 20.41539062 -19.25 19.75 C-14.92929033 15.27367155 -10.92633901 10.76810873 -7.27734375 5.72167969 C-3.03233125 0 -3.03233125 0 0 0 Z " fill="#D73327" transform="translate(748,657)"/>
<path d="M0 0 C12.36592489 -0.1574163 24.65415863 0.32292352 37 1 C37 1.66 37 2.32 37 3 C37.68964844 2.98839844 38.37929688 2.97679687 39.08984375 2.96484375 C45.15772652 2.90657876 50.98357396 3.21096052 57 4 C57 4.33 57 4.66 57 5 C54.7089095 5.19441368 52.41709663 5.38033135 50.125 5.5625 C48.21074219 5.71912109 48.21074219 5.71912109 46.2578125 5.87890625 C43 6 43 6 41 5 C39.588364 4.86096846 38.17126563 4.77477093 36.75390625 4.71875 C35.49803711 4.66267578 35.49803711 4.66267578 34.21679688 4.60546875 C32.90291992 4.55326172 32.90291992 4.55326172 31.5625 4.5 C29.83447329 4.43103219 28.10659269 4.35827215 26.37890625 4.28125 C25.6113501 4.25095703 24.84379395 4.22066406 24.05297852 4.18945312 C22 4 22 4 19 3 C16.93854893 2.931009 14.87498599 2.91532273 12.8125 2.9375 C11.72582031 2.94652344 10.63914062 2.95554687 9.51953125 2.96484375 C8.68808594 2.97644531 7.85664063 2.98804688 7 3 C7 2.67 7 2.34 7 2 C4.69 1.67 2.38 1.34 0 1 C0 0.67 0 0.34 0 0 Z " fill="#DF3327" transform="translate(428,8)"/>
<path d="M0 0 C-2 3 -2 3 -4.43359375 3.51171875 C-5.42488281 3.56972656 -6.41617188 3.62773437 -7.4375 3.6875 C-8.51386719 3.75453125 -9.59023438 3.8215625 -10.69921875 3.890625 C-13.72433522 3.99086555 -16.72426203 3.98828162 -19.75 3.9375 C-23.21397585 3.88744255 -26.15779322 4.14766238 -29.5 5.0625 C-33 6 -33 6 -36 5 C-37.95640275 5.09763744 -37.95640275 5.09763744 -40.0625 5.4375 C-45.05797331 6.07836664 -49.97090243 6.09449244 -55 6 C-55 5.67 -55 5.34 -55 5 C-54.17274414 4.91435791 -53.34548828 4.82871582 -52.49316406 4.74047852 C-49.41414335 4.42034164 -46.33540611 4.09763195 -43.25683594 3.77319336 C-41.27299339 3.56491403 -39.28884149 3.35958806 -37.3046875 3.15429688 C-36.05429687 3.02216797 -34.80390625 2.89003906 -33.515625 2.75390625 C-32.36352539 2.63345947 -31.21142578 2.5130127 -30.02441406 2.38891602 C-27.58948699 2.07580342 -25.3628769 1.62992697 -23 1 C-15.34272378 0.15956724 -7.69886121 -0.15641027 0 0 Z " fill="#CE3127" transform="translate(394,8)"/>
<path d="M0 0 C0.33 0 0.66 0 1 0 C1.22046085 11.08121979 0.55553886 21.91337662 -0.5 32.9375 C-0.64515628 34.50710378 -0.78969059 36.07676521 -0.93359375 37.64648438 C-1.28193066 41.43168932 -1.63855336 45.21602534 -2 49 C-2.66 49 -3.32 49 -4 49 C-4 51.31 -4 53.62 -4 56 C-4.33 56 -4.66 56 -5 56 C-5.09765625 49.84765625 -5.09765625 49.84765625 -5 48 C-4.505 47.505 -4.505 47.505 -4 47 C-4.0042747 45.27729646 -4.01615046 43.55430693 -4.06445312 41.83227539 C-4.29184233 33.5426552 -3.51341347 25.79440355 -2.07128906 17.63769531 C-1.09293776 12.00455025 -0.81527257 6.72655043 -1 1 C-0.67 0.67 -0.34 0.34 0 0 Z " fill="#D53227" transform="translate(831,433)"/>
<path d="M0 0 C0.33 0 0.66 0 1 0 C1.31309834 13.11534154 0.36834441 25.9588771 -1 39 C-1.66 39 -2.32 39 -3 39 C-3.33 39.66 -3.66 40.32 -4 41 C-4.34248926 31.96565657 -3.27222563 23.23195439 -2 14.3125 C-1.8066118 12.91741178 -1.61389903 11.52222976 -1.421875 10.12695312 C-0.95452142 6.75032352 -0.48042448 3.37479031 0 0 Z " fill="#D13227" transform="translate(10,339)"/>
<path d="M0 0 C0 0.66 0 1.32 0 2 C0.969375 1.773125 1.93875 1.54625 2.9375 1.3125 C7.70400168 0.58971081 11.62275855 2.24314799 16 4 C16 4.99 16 5.98 16 7 C17.60681641 7.07347656 17.60681641 7.07347656 19.24609375 7.1484375 C20.64325639 7.22345294 22.0403905 7.2990013 23.4375 7.375 C24.14455078 7.4059375 24.85160156 7.436875 25.58007812 7.46875 C27.39239188 7.57280629 29.19817988 7.77919892 31 8 C31.495 8.99 31.495 8.99 32 10 C14.72616033 8.31426364 14.72616033 8.31426364 8.18359375 5.7890625 C4.47648692 4.44946397 0.63068828 3.64369289 -3.203125 2.74609375 C-5.91391555 2.02296387 -8.42055459 1.096735 -11 0 C-11 -0.33 -11 -0.66 -11 -1 C-6.70700357 -2.26264601 -4.12168689 -1.62950412 0 0 Z " fill="#B42E25" transform="translate(297,798)"/>
<path d="M0 0 C5.72509454 -0.02500545 11.45015622 -0.04300228 17.17529297 -0.05493164 C19.11670486 -0.05991292 21.0581131 -0.06670036 22.99951172 -0.07543945 C47.0148198 -0.18071543 47.0148198 -0.18071543 56 1 C56.495 1.495 56.495 1.495 57 2 C59.32817964 2.36760731 61.6618385 2.70241581 64 3 C64 3.33 64 3.66 64 4 C62.04200257 4.05524131 60.08352063 4.093338 58.125 4.125 C57.03445312 4.14820313 55.94390625 4.17140625 54.8203125 4.1953125 C51.77619609 4.03968283 49.31884889 3.67782499 46.3828125 3.01367188 C41.24044607 1.95866946 36.29264291 1.65752275 31.0546875 1.5859375 C30.15879913 1.56657135 29.26291077 1.5472052 28.33987427 1.5272522 C25.51834202 1.46815235 22.69676741 1.42135347 19.875 1.375 C17.94529611 1.33675595 16.01560811 1.29770064 14.0859375 1.2578125 C9.39075631 1.16250945 4.69549548 1.07822646 0 1 C0 0.67 0 0.34 0 0 Z " fill="#E0130E" transform="translate(67,521)"/>
<path d="M0 0 C0.66 1.32 1.32 2.64 2 4 C1.22076172 4.61875 1.22076172 4.61875 0.42578125 5.25 C-3.94305472 8.8678161 -7.02163245 12.24455343 -9.85546875 17.14453125 C-12.56343271 21.53457521 -16.35995573 24.80208429 -21 27 C-21.99 26.67 -22.98 26.34 -24 26 C-22.68 25.34 -21.36 24.68 -20 24 C-20 23.34 -20 22.68 -20 22 C-18.59832829 20.8376381 -17.19338799 19.67902275 -15.7734375 18.5390625 C-9.67100637 13.24312006 -4.87243091 6.39784241 0 0 Z " fill="#CC3127" transform="translate(652,520)"/>
<path d="M0 0 C1.45369052 2.90738103 1.29639413 4.73966458 1 8 C-0.13716671 11.09624598 -1.56138729 14.03416438 -3 17 C-5.34228363 22.24671534 -7.25229428 27.53377148 -9 33 C-9.66 33 -10.32 33 -11 33 C-10.67 31.02 -10.34 29.04 -10 27 C-9.34 27 -8.68 27 -8 27 C-7.896875 25.700625 -7.79375 24.40125 -7.6875 23.0625 C-7.151692 18.09839647 -5.75069775 13.65751666 -4 9 C-3.34 9 -2.68 9 -2 9 C-1.855625 7.700625 -1.71125 6.40125 -1.5625 5.0625 C-1.125 1.125 -1.125 1.125 0 0 Z " fill="#C83126" transform="translate(30,270)"/>
<path d="M0 0 C0.66 0.33 1.32 0.66 2 1 C1.34 2.32 0.68 3.64 0 5 C-0.66 5 -1.32 5 -2 5 C-2.0825 5.7425 -2.165 6.485 -2.25 7.25 C-3.16123985 10.59121277 -4.5552019 11.59044224 -7 14 C-8.17905955 15.62219603 -9.32450113 17.26928691 -10.4375 18.9375 C-13.0292725 22.71903013 -15.61333552 25.92121411 -19 29 C-18.58747752 22.3996403 -13.394272 17.62626151 -9.3125 12.8125 C-6.95977125 10.10728927 -6.95977125 10.10728927 -5.375 7.1875 C-4 5 -4 5 -1 4 C-0.26676204 1.98491642 -0.26676204 1.98491642 0 0 Z " fill="#DB3327" transform="translate(767,628)"/>
<path d="M0 0 C2.05078125 0.03255208 4.1015625 0.06510417 6.15234375 0.09765625 C6.15234375 0.42765625 6.15234375 0.75765625 6.15234375 1.09765625 C-5.98158821 6.15346123 -21.19941773 4.21629081 -34.09765625 4.16015625 C-36.11458222 4.15513096 -38.13150941 4.15056987 -40.1484375 4.14648438 C-45.04820747 4.13556093 -49.94791821 4.11835309 -54.84765625 4.09765625 C-54.84765625 3.76765625 -54.84765625 3.43765625 -54.84765625 3.09765625 C-53.62771973 3.0726001 -52.4077832 3.04754395 -51.15087891 3.02172852 C-46.58470819 2.92689734 -42.01866308 2.82686776 -37.45263672 2.7253418 C-35.4839168 2.68227706 -33.51516634 2.64058466 -31.54638672 2.6003418 C-28.70140409 2.54194251 -25.85657128 2.47845653 -23.01171875 2.4140625 C-21.71108994 2.38899376 -21.71108994 2.38899376 -20.38418579 2.36341858 C-13.46614525 2.19917721 -6.30615922 0.33330651 0 0 Z " fill="#EFADAB" transform="translate(377.84765625,548.90234375)"/>
<path d="M0 0 C1.01252838 0.00141495 2.02505676 0.0028299 3.06826782 0.00428772 C6.28773001 0.00986482 9.50712149 0.02241313 12.7265625 0.03515625 C14.91536358 0.04017421 17.10416575 0.0447366 19.29296875 0.04882812 C24.64585727 0.05982675 29.99870483 0.07654205 35.3515625 0.09765625 C35.3515625 0.42765625 35.3515625 0.75765625 35.3515625 1.09765625 C34.80254776 1.10796371 34.25353302 1.11827118 33.68788147 1.12889099 C27.99434969 1.23673572 22.30098329 1.35135074 16.60766602 1.4699707 C14.48042243 1.51339048 12.3531424 1.55506018 10.22583008 1.5949707 C7.17518099 1.65250332 4.12471661 1.71624592 1.07421875 1.78125 C0.11693375 1.79796249 -0.84035126 1.81467499 -1.8266449 1.83189392 C-2.70748245 1.85183914 -3.58832001 1.87178436 -4.49584961 1.89233398 C-5.27528427 1.90787827 -6.05471893 1.92342255 -6.85777283 1.93943787 C-8.67137103 1.90654744 -8.67137103 1.90654744 -9.6484375 3.09765625 C-11.50131252 3.16992127 -13.35677628 3.18146845 -15.2109375 3.16015625 C-16.22285156 3.15113281 -17.23476562 3.14210938 -18.27734375 3.1328125 C-19.05980469 3.12121094 -19.84226562 3.10960937 -20.6484375 3.09765625 C-14.26850347 -0.58307492 -7.13152511 -0.03774287 0 0 Z " fill="#E30100" transform="translate(113.6484375,504.90234375)"/>
<path d="M0 0 C2 3 2 3 2 6 C2.66 6 3.32 6 4 6 C6.11536025 13.73241853 7.47957572 20.06409385 6 28 C3.87000003 24.20960634 3.83297544 21.34263862 4 17 C3.34 17 2.68 17 2 17 C1.34 11.39 0.68 5.78 0 0 Z " fill="#DC3327" transform="translate(12,492)"/>
<path d="M0 0 C1.32 0.33 2.64 0.66 4 1 C-0.58994511 3.39981901 -5.03950959 5.45673632 -10 7 C-11.672233 7.65257873 -13.33927151 8.31867549 -15 9 C-15.78375 9.309375 -16.5675 9.61875 -17.375 9.9375 C-19.44167987 10.77401328 -21.47777268 11.68610874 -23.5 12.625 C-26.71250319 13.88705482 -28.61929139 14.30733715 -32 14 C-27.94191935 11.2946129 -23.95110601 9 -19 9 C-19 8.34 -19 7.68 -19 7 C-16.36 6.67 -13.72 6.34 -11 6 C-11 5.34 -11 4.68 -11 4 C-5.555 3.01 -5.555 3.01 0 2 C0 1.34 0 0.68 0 0 Z " fill="#C03025" transform="translate(273,31)"/>
<path d="M0 0 C0 3 0 3 -1.92773438 5.26831055 C-2.80751953 6.13238525 -3.68730469 6.99645996 -4.59375 7.88671875 C-5.05986694 8.34859085 -5.52598389 8.81046295 -6.00622559 9.28633118 C-7.4972629 10.76056952 -8.99838872 12.22404088 -10.5 13.6875 C-11.51240054 14.68485528 -12.52412811 15.68289417 -13.53515625 16.68164062 C-16.01567629 19.12907564 -18.50535089 21.56695887 -21 24 C-21.66 23.67 -22.32 23.34 -23 23 C-21.38405168 20.95880212 -19.7143618 18.95927063 -18 17 C-17.34 17 -16.68 17 -16 17 C-15.71125 16.401875 -15.4225 15.80375 -15.125 15.1875 C-14 13 -14 13 -12 10 C-11.34 10 -10.68 10 -10 10 C-10 9.34 -10 8.68 -10 8 C-8.38542921 6.56418526 -6.70780925 5.19855217 -5 3.875 C-4.071875 3.15054688 -3.14375 2.42609375 -2.1875 1.6796875 C-1.1046875 0.84824219 -1.1046875 0.84824219 0 0 Z " fill="#F4D3D3" transform="translate(674,206)"/>
<path d="M0 0 C2.625 1.625 2.625 1.625 3.625 3.625 C2.965 3.625 2.305 3.625 1.625 3.625 C0.965 4.945 0.305 6.265 -0.375 7.625 C-0.705 6.635 -1.035 5.645 -1.375 4.625 C-2.035 4.625 -2.695 4.625 -3.375 4.625 C-3.375 3.965 -3.375 3.305 -3.375 2.625 C-7.005 2.625 -10.635 2.625 -14.375 2.625 C-14.045 1.635 -13.715 0.645 -13.375 -0.375 C-8.53564772 -1.98811743 -4.73658371 -1.92971929 0 0 Z " fill="#6A5658" transform="translate(659.375,503.375)"/>
<path d="M0 0 C2.48044315 3.72066472 2.44381173 6.86540474 2.625 11.1875 C2.66367188 11.93708984 2.70234375 12.68667969 2.7421875 13.45898438 C2.83628216 15.30559199 2.91922319 17.1527619 3 19 C3.99 18.67 4.98 18.34 6 18 C6.22142255 19.95689659 6.4267568 21.91561952 6.625 23.875 C6.74101562 24.96554687 6.85703125 26.05609375 6.9765625 27.1796875 C6.98429688 28.11039062 6.99203125 29.04109375 7 30 C6.34 30.66 5.68 31.32 5 32 C1.98435999 25.1920894 1.29429118 18.89041154 0.8125 11.5 C0.73064453 10.39140625 0.64878906 9.2828125 0.56445312 8.140625 C0.36565824 5.4276595 0.17778997 2.71440916 0 0 Z " fill="#AA2E26" transform="translate(6,458)"/>
<path d="M0 0 C5.60714939 5.60714939 4.11180284 18.45368118 4.13623047 25.92163086 C4.11988376 30.94824286 4.07695952 35.97395129 4 41 C3.67 41 3.34 41 3 41 C2.96241577 40.06148193 2.96241577 40.06148193 2.92407227 39.10400391 C2.80824727 36.27745381 2.68546015 33.45124831 2.5625 30.625 C2.52318359 29.64015625 2.48386719 28.6553125 2.44335938 27.640625 C2.40146484 26.69960938 2.35957031 25.75859375 2.31640625 24.7890625 C2.27974854 23.91975098 2.24309082 23.05043945 2.20532227 22.15478516 C2.12598456 19.9516738 2.12598456 19.9516738 1 18 C0.84995027 16.6265365 0.75161994 15.2471474 0.68359375 13.8671875 C0.62075195 12.65869141 0.62075195 12.65869141 0.55664062 11.42578125 C0.51732422 10.58402344 0.47800781 9.74226563 0.4375 8.875 C0.39431641 8.02550781 0.35113281 7.17601562 0.30664062 6.30078125 C0.20045764 4.20071777 0.09971503 2.10038052 0 0 Z " fill="#E31D11" transform="translate(690,378)"/>
<path d="M0 0 C12.36592489 -0.1574163 24.65415863 0.32292352 37 1 C37 1.33 37 1.66 37 2 C26.99112106 2.62277469 17.03411669 3.17707265 7 3 C7 2.67 7 2.34 7 2 C4.69 1.67 2.38 1.34 0 1 C0 0.67 0 0.34 0 0 Z " fill="#CA3127" transform="translate(428,8)"/>
<path d="M0 0 C1.91015625 0.1328125 1.91015625 0.1328125 3.91015625 1.1328125 C3.91015625 1.7928125 3.91015625 2.4528125 3.91015625 3.1328125 C4.57015625 3.1328125 5.23015625 3.1328125 5.91015625 3.1328125 C5.91015625 4.7828125 5.91015625 6.4328125 5.91015625 8.1328125 C4.92015625 8.6278125 4.92015625 8.6278125 3.91015625 9.1328125 C3.25015625 8.4728125 2.59015625 7.8128125 1.91015625 7.1328125 C1.91015625 5.8128125 1.91015625 4.4928125 1.91015625 3.1328125 C0.07314836 2.36038981 0.07314836 2.36038981 -2.08984375 2.1328125 C-3.86175284 3.48725551 -3.86175284 3.48725551 -5.08984375 5.1328125 C-5.41984375 4.4728125 -5.74984375 3.8128125 -6.08984375 3.1328125 C-6.74984375 4.4528125 -7.40984375 5.7728125 -8.08984375 7.1328125 C-8.74984375 6.8028125 -9.40984375 6.4728125 -10.08984375 6.1328125 C-6.48694304 0.02354607 -6.48694304 0.02354607 0 0 Z " fill="#503A3B" transform="translate(652.08984375,504.8671875)"/>
<path d="M0 0 C0.66 0.66 1.32 1.32 2 2 C1.36191406 2.75925781 0.72382812 3.51851562 0.06640625 4.30078125 C-0.75988281 5.29464844 -1.58617188 6.28851563 -2.4375 7.3125 C-3.26121094 8.29863281 -4.08492187 9.28476563 -4.93359375 10.30078125 C-7.14121576 12.88100145 -7.14121576 12.88100145 -8 16 C-8.66 16 -9.32 16 -10 16 C-10.28875 16.78375 -10.5775 17.5675 -10.875 18.375 C-12 21 -12 21 -14 23 C-14.99 22.67 -15.98 22.34 -17 22 C-16.59007813 21.45730469 -16.18015625 20.91460937 -15.7578125 20.35546875 C-15.21898438 19.64003906 -14.68015625 18.92460937 -14.125 18.1875 C-13.59132813 17.47980469 -13.05765625 16.77210938 -12.5078125 16.04296875 C-11.29185219 14.39543703 -10.13583859 12.70375789 -9 11 C-8.34 11 -7.68 11 -7 11 C-6.773125 10.484375 -6.54625 9.96875 -6.3125 9.4375 C-4.5024447 6.07596873 -2.26003596 3.07088856 0 0 Z " fill="#C53025" transform="translate(95,157)"/>
<path d="M0 0 C1.37478516 0.01740234 1.37478516 0.01740234 2.77734375 0.03515625 C3.69644531 0.04417969 4.61554688 0.05320312 5.5625 0.0625 C6.27277344 0.07410156 6.98304688 0.08570313 7.71484375 0.09765625 C7.71484375 0.75765625 7.71484375 1.41765625 7.71484375 2.09765625 C6.10609375 2.31421875 6.10609375 2.31421875 4.46484375 2.53515625 C0.99382737 2.96999461 0.99382737 2.96999461 -1.19433594 3.65405273 C-3.75469718 4.19727744 -5.88499822 4.01511373 -8.48828125 3.7578125 C-9.46796875 3.66435547 -10.44765625 3.57089844 -11.45703125 3.47460938 C-12.4728125 3.37083984 -13.48859375 3.26707031 -14.53515625 3.16015625 C-15.56640625 3.06025391 -16.59765625 2.96035156 -17.66015625 2.85742188 C-20.20248474 2.61025105 -22.74402295 2.3567808 -25.28515625 2.09765625 C-25.28515625 1.76765625 -25.28515625 1.43765625 -25.28515625 1.09765625 C-24.62394775 1.10289307 -23.96273926 1.10812988 -23.28149414 1.11352539 C-20.30355774 1.13423281 -17.32563643 1.14729637 -14.34765625 1.16015625 C-13.30673828 1.16853516 -12.26582031 1.17691406 -11.19335938 1.18554688 C-10.20400391 1.18876953 -9.21464844 1.19199219 -8.1953125 1.1953125 C-7.27886963 1.20054932 -6.36242676 1.20578613 -5.41821289 1.21118164 C-2.80695168 1.07220528 -2.66413481 0.11385191 0 0 Z " fill="#E7534E" transform="translate(326.28515625,547.90234375)"/>
<path d="M0 0 C0.97509909 2.58460001 1.15692639 3.63766589 0.0390625 6.21875 C-0.42757812 6.9715625 -0.89421875 7.724375 -1.375 8.5 C-3.11754285 11.34258386 -4.35795393 13.71511315 -5 17 C-5.66 17 -6.32 17 -7 17 C-7.33 18.65 -7.66 20.3 -8 22 C-8.66 21.01 -9.32 20.02 -10 19 C-8.70193907 14.45678676 -6.14910153 10.20431028 -4 6 C-3.34 6 -2.68 6 -2 6 C-1.34 4.02 -0.68 2.04 0 0 Z " fill="#C43026" transform="translate(803,561)"/>
<path d="M0 0 C-0.33 0.99 -0.66 1.98 -1 3 C-2.8203125 3.7734375 -2.8203125 3.7734375 -5.125 4.375 C-8.47698304 5.37210888 -10.88273143 6.45611486 -13.625 8.625 C-17.05108986 11.29686867 -19.69850357 11.73664308 -24 12 C-22.6875 10.5 -22.6875 10.5 -21 9 C-20.01 9 -19.02 9 -18 9 C-18 8.34 -18 7.68 -18 7 C-16.02 6.67 -14.04 6.34 -12 6 C-12 5.34 -12 4.68 -12 4 C-10.02 3.67 -8.04 3.34 -6 3 C-6 2.34 -6 1.68 -6 1 C-3 0 -3 0 0 0 Z " fill="#D03226" transform="translate(241,46)"/>
<path d="M0 0 C0.99 0 1.98 0 3 0 C2.67 1.98 2.34 3.96 2 6 C1.34 6 0.68 6 0 6 C-0.33 8.97 -0.66 11.94 -1 15 C-1.66 15 -2.32 15 -3 15 C-3.33 17.64 -3.66 20.28 -4 23 C-5.125 21.3125 -5.125 21.3125 -6 19 C-5.125 16.25 -5.125 16.25 -4 14 C-3.34 14 -2.68 14 -2 14 C-2.02320313 13.40832031 -2.04640625 12.81664062 -2.0703125 12.20703125 C-2.17411464 7.66198041 -2.13708357 4.14059941 0 0 Z " fill="#CF3227" transform="translate(815,523)"/>
<path d="M0 0 C0.33 0.66 0.66 1.32 1 2 C0.26394531 2.53109375 -0.47210938 3.0621875 -1.23046875 3.609375 C-2.20628906 4.31578125 -3.18210938 5.0221875 -4.1875 5.75 C-5.63189453 6.79414062 -5.63189453 6.79414062 -7.10546875 7.859375 C-9.0088151 9.26697797 -10.87236037 10.73034822 -12.6875 12.25 C-15.37903909 14.28684039 -16.70502527 14.37656854 -20 14 C-14.85714286 9.57142857 -14.85714286 9.57142857 -11 9 C-11 8.34 -11 7.68 -11 7 C-9.68 6.67 -8.36 6.34 -7 6 C-7 5.34 -7 4.68 -7 4 C-4.69 2.68 -2.38 1.36 0 0 Z " fill="#CC3125" transform="translate(202,65)"/>
<path d="M0 0 C5.75 0.875 5.75 0.875 8 2 C8 2.66 8 3.32 8 4 C8.99 4 9.98 4 11 4 C11 4.66 11 5.32 11 6 C11.66 6 12.32 6 13 6 C13 6.66 13 7.32 13 8 C13.99 8 14.98 8 16 8 C15.67 8.99 15.34 9.98 15 11 C14.154375 10.4225 13.30875 9.845 12.4375 9.25 C9.05211361 6.98768929 5.55187841 4.98905191 2 3 C2 2.34 2 1.68 2 1 C1.34 0.67 0.68 0.34 0 0 Z " fill="#D13227" transform="translate(175,741)"/>
<path d="M0 0 C3.16522641 0.24825305 5.31166619 0.97185164 8.1875 2.25 C8.8475 2.25 9.5075 2.25 10.1875 2.25 C10.1875 4.23 10.1875 6.21 10.1875 8.25 C9.5275 8.25 8.8675 8.25 8.1875 8.25 C7.5275 7.26 6.8675 6.27 6.1875 5.25 C3.54702748 4.23247445 3.54702748 4.23247445 0.5625 3.5625 C-0.44039062 3.31113281 -1.44328125 3.05976563 -2.4765625 2.80078125 C-3.24742187 2.61902344 -4.01828125 2.43726563 -4.8125 2.25 C-2.8125 0.25 -2.8125 0.25 0 0 Z " fill="#C9BFC1" transform="translate(653.8125,495.75)"/>
<path d="M0 0 C0.33 0 0.66 0 1 0 C1 1.98 1 3.96 1 6 C0.34 6 -0.32 6 -1 6 C-0.95875 7.051875 -0.9175 8.10375 -0.875 9.1875 C-0.99650182 12.8933055 -1.64424697 14.65049251 -3 18 C-3.42148875 19.92792077 -3.79676438 21.8665317 -4.125 23.8125 C-4.29257812 24.78832031 -4.46015625 25.76414062 -4.6328125 26.76953125 C-4.75398437 27.50558594 -4.87515625 28.24164062 -5 29 C-5.33 29 -5.66 29 -6 29 C-6 25.04 -6 21.08 -6 17 C-5.01 16.67 -4.02 16.34 -3 16 C-3 12.04 -3 8.08 -3 4 C-2.01 4 -1.02 4 0 4 C0 2.68 0 1.36 0 0 Z " fill="#AB2E26" transform="translate(825,491)"/>
<path d="M0 0 C-1.66135251 4.26173035 -4.74435318 7.03991533 -7.9375 10.1875 C-8.47568359 10.73341797 -9.01386719 11.27933594 -9.56835938 11.84179688 C-12.01160618 14.27299314 -13.68733927 15.89577976 -17 17 C-15.66848434 13.40490771 -13.48072794 11.63454764 -10.51953125 9.29296875 C-8.34973639 7.44669086 -6.72326883 5.2580764 -5 3 C-2.31034483 0 -2.31034483 0 0 0 Z " fill="#F7DAD9" transform="translate(541,317)"/>
<path d="M0 0 C-2.72772633 1.74574485 -4.12203651 1.99778115 -7.4375 1.9375 C-10.96601262 1.69110513 -10.96601262 1.69110513 -13.375 3.5 C-17.18344241 5.6762528 -20.70993673 5.25235666 -25 5 C-25 4.34 -25 3.68 -25 3 C-24.14535156 2.86722656 -23.29070312 2.73445313 -22.41015625 2.59765625 C-21.30542969 2.42105469 -20.20070313 2.24445312 -19.0625 2.0625 C-17.96035156 1.88847656 -16.85820312 1.71445312 -15.72265625 1.53515625 C-13.09573071 1.28154864 -13.09573071 1.28154864 -12 0 C-3.65019011 -1.36882129 -3.65019011 -1.36882129 0 0 Z " fill="#C13026" transform="translate(336,16)"/>
<path d="M0 0 C0.66 0 1.32 0 2 0 C1.566875 0.8353125 1.566875 0.8353125 1.125 1.6875 C-0.0413253 4.08494645 -1.0339881 6.51596939 -2 9 C-2.66 9 -3.32 9 -4 9 C-4.66 10.32 -5.32 11.64 -6 13 C-6.66 13 -7.32 13 -8 13 C-8.33 14.98 -8.66 16.96 -9 19 C-9.99 19.33 -10.98 19.66 -12 20 C-11.690625 19.236875 -11.38125 18.47375 -11.0625 17.6875 C-10.32106407 15.81210323 -9.63771783 13.91315348 -9 12 C-8.13375 11.1646875 -8.13375 11.1646875 -7.25 10.3125 C-4.65738147 7.64786428 -2.98885168 4.82130802 -1.1484375 1.609375 C-0.76945312 1.07828125 -0.39046875 0.5471875 0 0 Z " fill="#BF3026" transform="translate(76,182)"/>
<path d="M0 0 C0.33 0 0.66 0 1 0 C1.05429959 1.74965358 1.09292823 3.49979787 1.125 5.25 C1.14820313 6.22453125 1.17140625 7.1990625 1.1953125 8.203125 C0.99484729 11.07378674 0.35745988 12.51823175 -1 15 C-1.165 16.216875 -1.33 17.43375 -1.5 18.6875 C-1.665 19.780625 -1.83 20.87375 -2 22 C-2.66 22.33 -3.32 22.66 -4 23 C-3.48400816 15.1177798 -1.9078547 7.65541695 0 0 Z " fill="#C93126" transform="translate(16,313)"/>
<path d="M0 0 C0.33 0.99 0.66 1.98 1 3 C0.21625 3.7425 -0.5675 4.485 -1.375 5.25 C-4.0133586 7.71371115 -4.0133586 7.71371115 -5 10.1875 C-6.42996439 12.77931046 -8.26113837 13.13509633 -11 14 C-10.67 13.01 -10.34 12.02 -10 11 C-9.34 11 -8.68 11 -8 11 C-7.73445313 10.41734375 -7.46890625 9.8346875 -7.1953125 9.234375 C-5.96697004 6.93825772 -4.59685061 5.19643982 -2.875 3.25 C-2.33617188 2.63640625 -1.79734375 2.0228125 -1.2421875 1.390625 C-0.62730469 0.70226562 -0.62730469 0.70226562 0 0 Z " fill="#C13025" transform="translate(108,142)"/>
<path d="M0 0 C6.93 0.495 6.93 0.495 14 1 C14 1.66 14 2.32 14 3 C16.31 3 18.62 3 21 3 C21 3.33 21 3.66 21 4 C15.21408489 4.10477512 9.70690634 3.99250545 4 3 C4 2.34 4 1.68 4 1 C2.68 0.67 1.36 0.34 0 0 Z " fill="#CE3126" transform="translate(494,15)"/>
<path d="M0 0 C0.33 0 0.66 0 1 0 C1 2.31 1 4.62 1 7 C3.64 7 6.28 7 9 7 C9 7.99 9 8.98 9 10 C5.78548731 11.60725635 2.56387464 11.05748185 -1 11 C-0.67 7.37 -0.34 3.74 0 0 Z " fill="#DFC6C7" transform="translate(650,486)"/>
<path d="M0 0 C1.66733456 3.33466913 0.61632111 6.95968198 0.1875 10.5625 C0.0942041 11.3757373 0.0009082 12.18897461 -0.09521484 13.02685547 C-0.74365489 18.45007344 -1.62783779 23.70737435 -3 29 C-3.33 29 -3.66 29 -4 29 C-4.02688151 27.35425434 -4.04634123 25.70838587 -4.0625 24.0625 C-4.07410156 23.14597656 -4.08570313 22.22945313 -4.09765625 21.28515625 C-4 19 -4 19 -3 18 C-2.62525688 15.16600515 -2.29389149 12.34248179 -2 9.5 C-1.13513514 1.13513514 -1.13513514 1.13513514 0 0 Z " fill="#EB9998" transform="translate(498,390)"/>
<path d="M0 0 C0.33 0 0.66 0 1 0 C1.37192797 5.08301564 0.37750806 8.49971689 -2 13 C-4.1875 14.9375 -4.1875 14.9375 -6 16 C-6 14.68 -6 13.36 -6 12 C-5.34 12 -4.68 12 -4 12 C-3.34 9.03 -2.68 6.06 -2 3 C-1.34 3 -0.68 3 0 3 C0 2.01 0 1.02 0 0 Z " fill="#C63127" transform="translate(44,237)"/>
<path d="M0 0 C4.35129931 -0.26371511 7.85187793 0.74074866 12 2 C13.66246041 2.35371498 15.32774271 2.69595322 17 3 C14 5 14 5 10.6875 4.75 C7.30467142 4.06196707 4.19911096 3.29487825 1 2 C0.67 1.34 0.34 0.68 0 0 Z " fill="#CD3126" transform="translate(515,19)"/>
<path d="M0 0 C-1.65 0.66 -3.3 1.32 -5 2 C-4.67 2.99 -4.34 3.98 -4 5 C-7.3 5 -10.6 5 -14 5 C-14 4.34 -14 3.68 -14 3 C-10.535 2.505 -10.535 2.505 -7 2 C-7 1.34 -7 0.68 -7 0 C-2.25 -1.125 -2.25 -1.125 0 0 Z " fill="#F5DADB" transform="translate(67,517)"/>
<path d="M0 0 C4.08378283 0.74250597 8.01939223 1.82923301 12 3 C12 3.66 12 4.32 12 5 C14.31 5.33 16.62 5.66 19 6 C16 8 16 8 13 8 C13 7.34 13 6.68 13 6 C12.01 6 11.02 6 10 6 C10 5.34 10 4.68 10 4 C9.01 4.33 8.02 4.66 7 5 C7 4.34 7 3.68 7 3 C5.824375 3.0928125 5.824375 3.0928125 4.625 3.1875 C3.75875 3.125625 2.8925 3.06375 2 3 C1.34 2.01 0.68 1.02 0 0 Z " fill="#BE3026" transform="translate(567,35)"/>
<path d="M0 0 C0.66 0 1.32 0 2 0 C2 0.99 2 1.98 2 3 C1.34 3 0.68 3 0 3 C-0.0825 3.721875 -0.165 4.44375 -0.25 5.1875 C-1.14750201 8.55313254 -2.7114278 10.41612816 -5 13 C-5.63175608 7.81960013 -4.25817319 5.33121642 -1.2890625 1.3203125 C-0.86367188 0.88460937 -0.43828125 0.44890625 0 0 Z " fill="#D73327" transform="translate(784,598)"/>
<path d="M0 0 C0.33 0 0.66 0 1 0 C1.31985731 6.71700347 0.4793824 11.75726932 -2 18 C-2.33 18 -2.66 18 -3 18 C-2.67 13.71 -2.34 9.42 -2 5 C-1.34 5 -0.68 5 0 5 C0 3.35 0 1.7 0 0 Z " fill="#E2221B" transform="translate(553,400)"/>
<path d="M0 0 C0.99 0.495 0.99 0.495 2 1 C2 2.65 2 4.3 2 6 C2.66 6 3.32 6 4 6 C6.23551759 9.35327639 6.17283528 9.90743657 5.625 13.6875 C5.51414062 14.49574219 5.40328125 15.30398438 5.2890625 16.13671875 C5.19367187 16.75160156 5.09828125 17.36648438 5 18 C2.87000003 14.20960634 2.83297544 11.34263862 3 7 C2.34 7 1.68 7 1 7 C0.67 4.69 0.34 2.38 0 0 Z " fill="#A72D25" transform="translate(13,502)"/>
<path d="M0 0 C1.67542976 0.28604898 3.34385343 0.61781233 5 1 C2.15819378 2.89453748 -0.31564815 4.00192814 -3.5 5.1875 C-4.4590625 5.55230469 -5.418125 5.91710937 -6.40625 6.29296875 C-9 7 -9 7 -12 6 C-8.43603465 3.69390477 -5.03626477 2.28426606 -1 1 C-0.67 0.67 -0.34 0.34 0 0 Z " fill="#D53227" transform="translate(572,786)"/>
<path d="M0 0 C1.32 0.33 2.64 0.66 4 1 C4.12375 1.639375 4.2475 2.27875 4.375 2.9375 C4.684375 3.9584375 4.684375 3.9584375 5 5 C5.66 5.33 6.32 5.66 7 6 C7.59355614 8.64860427 7.74209269 11.29197322 8 14 C3 6.5 3 6.5 3 4 C2.34 4 1.68 4 1 4 C0.67 2.68 0.34 1.36 0 0 Z " fill="#C83126" transform="translate(53,606)"/>
<path d="M0 0 C0.33 0 0.66 0 1 0 C0.85962479 1.81293089 0.71255111 3.6253443 0.5625 5.4375 C0.48128906 6.44683594 0.40007812 7.45617187 0.31640625 8.49609375 C0 11 0 11 -1 12 C-1.36760731 14.32817964 -1.70241581 16.6618385 -2 19 C-2.33 19 -2.66 19 -3 19 C-3.19946435 12.71687298 -2.84752843 7.04155282 -1 1 C-0.67 0.67 -0.34 0.34 0 0 Z " fill="#E21712" transform="translate(499,379)"/>
<path d="M0 0 C2.69082872 0.17635452 5.32851446 0.61835921 8 1 C4.86501708 2.85776765 2.62528568 3.20140476 -1 3 C-1 3.66 -1 4.32 -1 5 C-2.65 5 -4.3 5 -6 5 C-5.195625 4.360625 -4.39125 3.72125 -3.5625 3.0625 C-1.7249496 1.59396498 -1.7249496 1.59396498 0 0 Z " fill="#D63328" transform="translate(541,796)"/>
<path d="M0 0 C1 3 1 3 0 6 C-0.66 6 -1.32 6 -2 6 C-2.33 7.65 -2.66 9.3 -3 11 C-3.99 11 -4.98 11 -6 11 C-4.34703566 6.90694544 -2.86453858 3.41016497 0 0 Z " fill="#D33227" transform="translate(792,584)"/>
<path d="M0 0 C5.23610116 -0.31416607 8.51492303 0.22352378 13 3 C13.33 3.66 13.66 4.32 14 5 C13.34 5 12.68 5 12 5 C11.67 5.99 11.34 6.98 11 8 C10.731875 7.38125 10.46375 6.7625 10.1875 6.125 C9.04443152 3.7004767 9.04443152 3.7004767 6 2 C4.0103005 1.60986284 2.00980131 1.26797351 0 1 C0 0.67 0 0.34 0 0 Z " fill="#886C6D" transform="translate(649,502)"/>
<path d="M0 0 C0.66 0.33 1.32 0.66 2 1 C-0.19179122 5.50534863 -2.35791133 7.16250657 -7 9 C-7.99 9 -8.98 9 -10 9 C-9.278125 8.443125 -8.55625 7.88625 -7.8125 7.3125 C-5.02542701 5.02090666 -2.51358472 2.58540143 0 0 Z " fill="#C23025" transform="translate(152,100)"/>
<path d="M0 0 C-3.11090323 2.76524731 -4.88286826 3.22254766 -9 3 C-9.33 3.33 -9.66 3.66 -10 4 C-11.99958364 4.04080783 -14.00045254 4.04254356 -16 4 C-13.03017788 2.41839705 -10.09120779 1.29656358 -6.875 0.3125 C-6.00617188 0.04050781 -5.13734375 -0.23148438 -4.2421875 -0.51171875 C-2 -1 -2 -1 0 0 Z " fill="#BD2F25" transform="translate(298,25)"/>
<path d="M0 0 C0.33 0 0.66 0 1 0 C1 2.64 1 5.28 1 8 C1.66 8 2.32 8 3 8 C3.33 11.63 3.66 15.26 4 19 C3.34 18.67 2.68 18.34 2 18 C2 15.69 2 13.38 2 11 C1.34 11 0.68 11 0 11 C0 7.37 0 3.74 0 0 Z " fill="#9C2C25" transform="translate(826,336)"/>
<path d="M0 0 C0 0.66 0 1.32 0 2 C-4.21878192 2.19622241 -7.17010894 1.80230168 -11 0 C-11 -0.33 -11 -0.66 -11 -1 C-6.70700357 -2.26264601 -4.12168689 -1.62950412 0 0 Z " fill="#C23027" transform="translate(297,798)"/>
<path d="M0 0 C0.33 0 0.66 0 1 0 C0.91231752 1.5843317 0.80412671 3.16753567 0.6875 4.75 C0.62949219 5.63171875 0.57148437 6.5134375 0.51171875 7.421875 C-0.0641181 10.32303774 -1.07596148 11.79225607 -3 14 C-3.40652968 8.57960425 -2.03993514 4.92984325 0 0 Z " fill="#E32013" transform="translate(649,486)"/>
<path d="M0 0 C1.41000664 2.82001327 1.24548451 4.87007255 1 8 C-0.5 10.875 -0.5 10.875 -2 13 C-3.18771723 9.57056481 -2.80226223 7.62215325 -1.5625 4.25 C-1.27503906 3.45078125 -0.98757812 2.6515625 -0.69140625 1.828125 C-0.46324219 1.22484375 -0.23507813 0.6215625 0 0 Z " fill="#CE3227" transform="translate(30,270)"/>
<path d="M0 0 C0.66 0.99 1.32 1.98 2 3 C1.25 5.4375 1.25 5.4375 0 8 C-0.37125 8.763125 -0.7425 9.52625 -1.125 10.3125 C-1.41375 10.869375 -1.7025 11.42625 -2 12 C-2.66 11.67 -3.32 11.34 -4 11 C-2.68 7.37 -1.36 3.74 0 0 Z " fill="#B32F26" transform="translate(35,256)"/>
<path d="M0 0 C2.04219706 1.69179328 2.91793306 2.63727666 3.51171875 5.26171875 C3.56972656 6.06222656 3.62773438 6.86273437 3.6875 7.6875 C3.75324219 8.49574219 3.81898437 9.30398438 3.88671875 10.13671875 C3.92410156 10.75160156 3.96148437 11.36648438 4 12 C2 9 2 9 2 6 C1.34 6 0.68 6 0 6 C-0.38218767 4.34385343 -0.71395102 2.67542976 -1 1 C-0.67 0.67 -0.34 0.34 0 0 Z " fill="#CE3226" transform="translate(48,592)"/>
<path d="M0 0 C1 3 1 3 -0.3125 5.6875 C-0.869375 6.450625 -1.42625 7.21375 -2 8 C-2.66 8 -3.32 8 -4 8 C-4 8.66 -4 9.32 -4 10 C-4.99 10 -5.98 10 -7 10 C-7 9.34 -7 8.68 -7 8 C-6.34 8 -5.68 8 -5 8 C-4.731875 7.4225 -4.46375 6.845 -4.1875 6.25 C-2.98280141 3.9674132 -1.59201885 2.0262058 0 0 Z " fill="#502423" transform="translate(618,549)"/>
<path d="M0 0 C2.05078125 0.03255208 4.1015625 0.06510417 6.15234375 0.09765625 C6.15234375 0.42765625 6.15234375 0.75765625 6.15234375 1.09765625 C0.50835017 3.53830212 -4.82517103 3.29054724 -10.84765625 3.09765625 C-10.84765625 2.76765625 -10.84765625 2.43765625 -10.84765625 2.09765625 C-8.796875 1.86979167 -6.74609375 1.64192708 -4.6953125 1.4140625 C-2.51789177 1.04118495 -2.21147387 0.11688551 0 0 Z " fill="#F1BBBB" transform="translate(377.84765625,548.90234375)"/>
<path d="M0 0 C-3.42094242 2.28062828 -4.68187222 2.21925007 -8.6875 2.125 C-10.17830078 2.09792969 -10.17830078 2.09792969 -11.69921875 2.0703125 C-12.45847656 2.04710937 -13.21773438 2.02390625 -14 2 C-9.39809749 -0.42988387 -5.08896931 -1.7615663 0 0 Z " fill="#E41D15" transform="translate(107,506)"/>
<path d="M0 0 C2.475 0.99 2.475 0.99 5 2 C5.33 4.64 5.66 7.28 6 10 C5.34 9.34 4.68 8.68 4 8 C4 7.01 4 6.02 4 5 C3.34 5 2.68 5 2 5 C1.34 3.35 0.68 1.7 0 0 Z " fill="#C13026" transform="translate(65,626)"/>
<path d="M0 0 C0.33 0 0.66 0 1 0 C1.38281159 5.23175837 0.21854707 8.37802694 -2 13 C-2.33 13 -2.66 13 -3 13 C-2.67 10.03 -2.34 7.06 -2 4 C-1.34 4 -0.68 4 0 4 C0 2.68 0 1.36 0 0 Z " fill="#E01D12" transform="translate(678,252)"/>
<path d="M0 0 C0.93065133 2.60582371 1.14917407 3.64198224 0.0625 6.25 C-0.4634375 7.11625 -0.4634375 7.11625 -1 8 C-1.99 8 -2.98 8 -4 8 C-2.87548273 5.0280615 -1.77706209 2.66559313 0 0 Z " fill="#E34E47" transform="translate(508,520)"/>
<path d="M0 0 C0.66 0.33 1.32 0.66 2 1 C-1.75 7.875 -1.75 7.875 -4 9 C-3.46930939 5.17902761 -2.50298434 2.93828597 0 0 Z " fill="#D53326" transform="translate(773,618)"/>
<path d="M0 0 C0.33 0 0.66 0 1 0 C1.36625971 4.51720311 1.36625971 4.51720311 -0.375 6.8125 C-2 8 -2 8 -4 8 C-4.33 8.66 -4.66 9.32 -5 10 C-5 9.01 -5 8.02 -5 7 C-4.34 7 -3.68 7 -3 7 C-2.690625 6.21625 -2.38125 5.4325 -2.0625 4.625 C-1 2 -1 2 0 0 Z " fill="#B62F26" transform="translate(63,202)"/>
<path d="M0 0 C3.84177074 0.30329769 6.09427672 1.52475424 9 4 C5.31733897 3.40049704 1.65456815 2.75241109 -2 2 C-1.34 1.34 -0.68 0.68 0 0 Z " fill="#BAAEB1" transform="translate(651,496)"/>
<path d="M0 0 C0.33 0.99 0.66 1.98 1 3 C-0.8125 6.1875 -0.8125 6.1875 -3 9 C-3.66 9 -4.32 9 -5 9 C-4.42647107 5.12867972 -2.51295648 2.91827204 0 0 Z " fill="#E4251B" transform="translate(633,251)"/>
<path d="M0 0 C0.66 0 1.32 0 2 0 C1.34 4.29 0.68 8.58 0 13 C-0.33 13 -0.66 13 -1 13 C-1.02686553 11.02090602 -1.04633375 9.04171029 -1.0625 7.0625 C-1.07410156 5.96035156 -1.08570313 4.85820312 -1.09765625 3.72265625 C-1 1 -1 1 0 0 Z " fill="#C03027" transform="translate(820,507)"/>
<path d="M0 0 C2.375 0.25 2.375 0.25 5 1 C6.3125 3.0625 6.3125 3.0625 7 5 C6.01 5 5.02 5 4 5 C3.67 4.01 3.34 3.02 3 2 C2.01 1.67 1.02 1.34 0 1 C0 0.67 0 0.34 0 0 Z " fill="#A29395" transform="translate(656,500)"/>
<path d="M0 0 C2.64 0 5.28 0 8 0 C8 0.66 8 1.32 8 2 C8.99 2.33 9.98 2.66 11 3 C6.78121808 3.19622241 3.82989106 2.80230168 0 1 C0 0.67 0 0.34 0 0 Z " fill="#E5DEE0" transform="translate(654,494)"/>
<path d="M0 0 C0.33 0 0.66 0 1 0 C1.28571429 7.42857143 1.28571429 7.42857143 -1 11 C-1.66 11 -2.32 11 -3 11 C-2.67 9.02 -2.34 7.04 -2 5 C-1.34 5 -0.68 5 0 5 C0 3.35 0 1.7 0 0 Z " fill="#B02F26" transform="translate(22,292)"/>
<path d="M0 0 C0.66 0 1.32 0 2 0 C1.5206753 4.31392226 0.2542015 6.16569547 -3 9 C-3 8.01 -3 7.02 -3 6 C-2.34 6 -1.68 6 -1 6 C-0.67 4.02 -0.34 2.04 0 0 Z " fill="#BB3026" transform="translate(51,222)"/>
<path d="M0 0 C2.475 0.99 2.475 0.99 5 2 C5 2.66 5 3.32 5 4 C5.99 4 6.98 4 8 4 C7.67 4.66 7.34 5.32 7 6 C4.69 5.01 2.38 4.02 0 3 C0 2.01 0 1.02 0 0 Z " fill="#BC3026" transform="translate(640,71)"/>
<path d="M0 0 C0.66 0.33 1.32 0.66 2 1 C1.34 2.32 0.68 3.64 0 5 C-0.66 5 -1.32 5 -2 5 C-2.33 6.65 -2.66 8.3 -3 10 C-3.66 8.68 -4.32 7.36 -5 6 C-4.360625 5.7525 -3.72125 5.505 -3.0625 5.25 C-0.81258459 4.18437567 -0.81258459 4.18437567 -0.25 1.875 C-0.1675 1.25625 -0.085 0.6375 0 0 Z " fill="#CD3126" transform="translate(767,628)"/>
<path d="M0 0 C1.31223496 3.93670488 0.24296256 6.12488144 -1 10 C-1.66 9.01 -2.32 8.02 -3 7 C-1.59459459 1.59459459 -1.59459459 1.59459459 0 0 Z " fill="#C63126" transform="translate(808,547)"/>
<path d="M0 0 C0.99 0.66 1.98 1.32 3 2 C1.02 3.32 -0.96 4.64 -3 6 C-3.66 5.67 -4.32 5.34 -5 5 C-3.35 3.35 -1.7 1.7 0 0 Z " fill="#E65049" transform="translate(433,526)"/>
<path d="M0 0 C0.33 1.32 0.66 2.64 1 4 C0.34 4 -0.32 4 -1 4 C-0.67 5.32 -0.34 6.64 0 8 C-1.32 8.33 -2.64 8.66 -4 9 C-3.34 7.02 -2.68 5.04 -2 3 C-1.34 3 -0.68 3 0 3 C0 2.01 0 1.02 0 0 Z " fill="#E7645F" transform="translate(520,499)"/>
<path d="M0 0 C4 4.625 4 4.625 4 8 C3.01 7.67 2.02 7.34 1 7 C0.67 4.69 0.34 2.38 0 0 Z " fill="#D03227" transform="translate(782,219)"/>
<path d="M0 0 C0.66 1.32 1.32 2.64 2 4 C2.66 4 3.32 4 4 4 C4.33 5.32 4.66 6.64 5 8 C3.68 7.34 2.36 6.68 1 6 C1 5.01 1 4.02 1 3 C0.34 3 -0.32 3 -1 3 C-0.67 2.01 -0.34 1.02 0 0 Z " fill="#C73026" transform="translate(772,202)"/>
<path d="M0 0 C-1.25 1.5625 -1.25 1.5625 -3 3 C-5.1875 2.6875 -5.1875 2.6875 -7 2 C-7 1.34 -7 0.68 -7 0 C-2.25 -1.125 -2.25 -1.125 0 0 Z " fill="#C33026" transform="translate(308,22)"/>
<path d="M0 0 C-3.06246747 1.78409802 -5.22079273 2.22880021 -8.75 2.125 C-9.54921875 2.10695313 -10.3484375 2.08890625 -11.171875 2.0703125 C-11.77515625 2.04710937 -12.3784375 2.02390625 -13 2 C-12.67 1.34 -12.34 0.68 -12 0 C-3.89667897 -1.46125461 -3.89667897 -1.46125461 0 0 Z " fill="#AE2D25" transform="translate(336,16)"/>
</svg>
